<?xml version="1.0" encoding="UTF-8"?>
<svg id="Layer_1" data-name="Layer 1" xmlns="http://www.w3.org/2000/svg" viewBox="0 0 231.46 251.78">
  <defs>
    <style>
      .cls-1 {
        fill: #efcad1;
        stroke: #efcad1;
        stroke-linecap: round;
        stroke-linejoin: round;
        stroke-width: .21px;
      }

      .cls-2 {
        fill: #f0cfd6;
      }
    </style>
  </defs>
  <path class="cls-2" d="M120.67,42.36l-3.97-3.32-2.18,4.94c-.32.72-1.4.51-1.42-.28l-.13-5.06-4.8,2.2c-.73.34-1.4-.57-.86-1.17l3.54-3.91-4.79-1.66c-.75-.26-.62-1.35.16-1.44l5.37-.59-1.96-4.79c-.29-.72.57-1.35,1.16-.85l3.97,3.32,2.18-4.94c.32-.72,1.4-.51,1.42.28l.13,5.06,4.8-2.2c.73-.34,1.4.57.86,1.17l-3.54,3.91,4.79,1.66c.75.26.62,1.35-.16,1.44l-5.37.59,1.96,4.79c.29.72-.57,1.35-1.16.85Z"/>
  <g>
    <path class="cls-1" d="M33.53,60.19v.05s-.56,0-.56.79v5.12c0,1.68-1.16,2.7-3.07,2.7-1.09,0-2.07-.41-2.82-1.1-.46-.4-.44.08-.44.08h-.05l-.14-2.23h.05c.84,2.14,2.23,3.31,3.85,3.14,1.3-.13,1.88-1.09,1.88-2.58v-5.12c0-.79-.56-.79-.56-.79v-.05h1.86Z"/>
    <path class="cls-1" d="M43.42,64.48c0,2.42-1.88,4.38-4.19,4.38s-4.19-1.96-4.19-4.38,1.88-4.38,4.19-4.38,4.19,1.96,4.19,4.38ZM42.61,64.12c-.25-2.35-1.96-4.1-3.83-3.9-1.87.2-3.18,2.26-2.93,4.62s1.96,4.1,3.83,3.9c1.87-.2,3.18-2.26,2.93-4.61Z"/>
    <path class="cls-1" d="M46.31,61.03v6.89c0,.79.56.79.56.79v.05h-1.86v-.05s.56,0,.56-.79v-6.89c0-.79-.56-.79-.56-.79v-.05h1.86v.05s-.56,0-.56.79Z"/>
    <path class="cls-1" d="M55.24,60.19v.05s-.56,0-.56.79v7.73h-.09l-5.49-7.96v7.12c0,.79.56.79.56.79v.05h-1.21v-.05s.56,0,.56-.79v-6.89c0-.79-.56-.79-.56-.79v-.05h.98l5.17,7.49v-6.65c0-.79-.56-.79-.56-.79v-.05h1.21Z"/>
    <path class="cls-1" d="M68.62,61.87h-.05s-.14-1.58-2.09-1.58h-.93v7.64c0,.79.56.79.56.79v.05h-1.86v-.05s.56,0,.56-.79v-7.64h-.93c-1.96,0-2.09,1.58-2.09,1.58h-.05l.09-1.68h6.7l.09,1.68Z"/>
    <path class="cls-1" d="M76.47,61.03v6.89c0,.79.56.79.56.79v.05h-1.86v-.05s.56,0,.56-.79v-3.54h-4.47v3.54c0,.79.56.79.56.79v.05h-1.86v-.05s.56,0,.56-.79v-6.89c0-.79-.56-.79-.56-.79v-.05h1.86v.05s-.56,0-.56.79v3.26h4.47v-3.26c0-.79-.56-.79-.56-.79v-.05h1.86v.05s-.56,0-.56.79Z"/>
    <path class="cls-1" d="M84.84,67.08l-.09,1.68h-6.15v-.05s.56,0,.56-.79v-6.89c0-.79-.56-.79-.56-.79v-.05h6.05l.09,1.68h-.05s-.14-1.58-2.09-1.58h-2.7v4h2.33c.79,0,.79-.56.79-.56h.05v1.21h-.05s0-.56-.79-.56h-2.33v4.28h2.79c1.96,0,2.09-1.58,2.09-1.58h.05Z"/>
    <path class="cls-1" d="M99,61.03v6.89c0,.79.56.79.56.79v.05h-1.86v-.05s.56,0,.56-.79v-7.47l-2.98,8.31h-.09l-2.98-7.72v6.88c0,.79.56.79.56.79v.05h-1.21v-.05s.56,0,.56-.79v-6.89c0-.15-.02-.28-.06-.38l-.02-.06c-.15-.35-.48-.35-.48-.35v-.05h1.07l2.92,7.57,2.71-7.57h1.3v.05s-.56,0-.56.79Z"/>
    <path class="cls-1" d="M108.92,68.71v.05h-1.86v-.05s.54,0,.22-.79l-.8-1.96h-3.96l-.8,1.97c-.31.77.22.78.22.78v.05h-1.21v-.05s.58-.02.9-.79l3.15-7.73h.09l3.15,7.73c.32.77.9.79.9.79ZM106.44,65.87l-1.94-4.77-1.94,4.77h3.89Z"/>
    <path class="cls-1" d="M116.61,61.03v6.89c0,.79.56.79.56.79v.05h-1.86v-.05s.56,0,.56-.79v-3.54h-4.47v3.54c0,.79.56.79.56.79v.05h-1.86v-.05s.56,0,.56-.79v-6.89c0-.79-.56-.79-.56-.79v-.05h1.86v.05s-.56,0-.56.79v3.26h4.47v-3.26c0-.79-.56-.79-.56-.79v-.05h1.86v.05s-.56,0-.56.79Z"/>
    <path class="cls-1" d="M125.67,60.19v.05s-.56,0-.56.79v5.12c0,1.68-1.16,2.7-3.07,2.7-1.09,0-2.07-.41-2.82-1.1-.46-.4-.44.08-.44.08h-.05l-.14-2.23h.05c.84,2.14,2.23,3.31,3.85,3.14,1.3-.13,1.88-1.09,1.88-2.58v-5.12c0-.79-.56-.79-.56-.79v-.05h1.86Z"/>
    <path class="cls-1" d="M135.56,64.48c0,2.42-1.88,4.38-4.19,4.38s-4.19-1.96-4.19-4.38,1.88-4.38,4.19-4.38,4.19,1.96,4.19,4.38ZM134.75,64.12c-.25-2.35-1.96-4.1-3.83-3.9-1.87.2-3.18,2.26-2.93,4.62s1.96,4.1,3.83,3.9c1.87-.2,3.18-2.26,2.93-4.61Z"/>
    <path class="cls-1" d="M143.81,60.19v.05s-.6.03-1.06.79l-2.48,4.15v2.74c0,.79.56.79.56.79v.05h-1.86v-.05s.56,0,.56-.79v-2.27l-2.76-4.62c-.46-.76-1.06-.79-1.06-.79v-.05h1.86v.05s-.52.01-.06.79l2.57,4.31,2.57-4.31c.46-.77-.06-.79-.06-.79v-.05h1.21Z"/>
    <path class="cls-1" d="M157.29,66.76c0,1.26-.88,2.1-3.26,2.1-1.35,0-2.35-.41-3.1-1.1-.46-.4-.44.08-.44.08h-.05l-.14-2.23h.05c.84,2.14,2.14,3.17,3.82,3.17,1.16,0,2.65-.51,2.65-1.68,0-3.26-6.52-1.21-6.52-4.84,0-1.3,1.12-2.14,3.26-2.14,1.3,0,2.25.41,3.01,1.1.46.4.44-.08.44-.08h.05l.14,2.23h-.05c-.84-2.14-2.1-3.17-3.77-3.17-1.02,0-2.61.56-2.61,1.77,0,3.17,6.52,1.12,6.52,4.8Z"/>
    <path class="cls-1" d="M167.39,64.48c0,2.42-1.88,4.38-4.19,4.38s-4.19-1.96-4.19-4.38,1.88-4.38,4.19-4.38,4.19,1.96,4.19,4.38ZM166.58,64.12c-.25-2.35-1.96-4.1-3.83-3.9-1.87.2-3.18,2.26-2.93,4.62s1.96,4.1,3.83,3.9c1.87-.2,3.18-2.26,2.93-4.61Z"/>
    <path class="cls-1" d="M176.71,66.9c-.75,1.18-2,1.96-3.54,1.96-2.31,0-4.19-1.96-4.19-4.38s1.88-4.38,4.19-4.38c1.09,0,2.07.41,2.82,1.1.46.4.44-.08.44-.08h.05l.14,2.23h-.05c-.84-2.14-2.23-3.31-3.85-3.14-1.87.19-3.2,2.26-2.93,4.62.26,2.3,1.75,3.74,3.71,3.74,1.4,0,2.51-.75,3.12-1.68h.09Z"/>
    <path class="cls-1" d="M179.59,61.03v6.89c0,.79.56.79.56.79v.05h-1.86v-.05s.56,0,.56-.79v-6.89c0-.79-.56-.79-.56-.79v-.05h1.86v.05s-.56,0-.56.79Z"/>
    <path class="cls-1" d="M187.96,67.08l-.09,1.68h-6.15v-.05s.56,0,.56-.79v-6.89c0-.79-.56-.79-.56-.79v-.05h6.05l.09,1.68h-.05s-.14-1.58-2.09-1.58h-2.7v4h2.33c.79,0,.79-.56.79-.56h.05v1.21h-.05s0-.56-.79-.56h-2.33v4.28h2.79c1.96,0,2.09-1.58,2.09-1.58h.05Z"/>
    <path class="cls-1" d="M196.14,61.87h-.05s-.14-1.58-2.09-1.58h-.93v7.64c0,.79.56.79.56.79v.05h-1.86v-.05s.56,0,.56-.79v-7.64h-.93c-1.96,0-2.09,1.58-2.09,1.58h-.05l.09-1.68h6.7l.09,1.68Z"/>
    <path class="cls-1" d="M205.16,60.19v.05s-.6.03-1.06.79l-2.48,4.15v2.74c0,.79.56.79.56.79v.05h-1.86v-.05s.56,0,.56-.79v-2.27l-2.76-4.62c-.46-.76-1.06-.79-1.06-.79v-.05h1.86v.05s-.52.01-.06.79l2.57,4.31,2.57-4.31c.46-.77-.06-.79-.06-.79v-.05h1.21Z"/>
  </g>
  <g>
    <path class="cls-1" d="M33.53,60.19v.05s-.56,0-.56.79v5.12c0,1.68-1.16,2.7-3.07,2.7-1.09,0-2.07-.41-2.82-1.1-.46-.4-.44.08-.44.08h-.05l-.14-2.23h.05c.84,2.14,2.23,3.31,3.85,3.14,1.3-.13,1.88-1.09,1.88-2.58v-5.12c0-.79-.56-.79-.56-.79v-.05h1.86Z"/>
    <path class="cls-1" d="M43.42,64.48c0,2.42-1.88,4.38-4.19,4.38s-4.19-1.96-4.19-4.38,1.88-4.38,4.19-4.38,4.19,1.96,4.19,4.38ZM42.61,64.12c-.25-2.35-1.96-4.1-3.83-3.9-1.87.2-3.18,2.26-2.93,4.62s1.96,4.1,3.83,3.9c1.87-.2,3.18-2.26,2.93-4.61Z"/>
    <path class="cls-1" d="M46.31,61.03v6.89c0,.79.56.79.56.79v.05h-1.86v-.05s.56,0,.56-.79v-6.89c0-.79-.56-.79-.56-.79v-.05h1.86v.05s-.56,0-.56.79Z"/>
    <path class="cls-1" d="M55.24,60.19v.05s-.56,0-.56.79v7.73h-.09l-5.49-7.96v7.12c0,.79.56.79.56.79v.05h-1.21v-.05s.56,0,.56-.79v-6.89c0-.79-.56-.79-.56-.79v-.05h.98l5.17,7.49v-6.65c0-.79-.56-.79-.56-.79v-.05h1.21Z"/>
    <path class="cls-1" d="M68.62,61.87h-.05s-.14-1.58-2.09-1.58h-.93v7.64c0,.79.56.79.56.79v.05h-1.86v-.05s.56,0,.56-.79v-7.64h-.93c-1.96,0-2.09,1.58-2.09,1.58h-.05l.09-1.68h6.7l.09,1.68Z"/>
    <path class="cls-1" d="M76.47,61.03v6.89c0,.79.56.79.56.79v.05h-1.86v-.05s.56,0,.56-.79v-3.54h-4.47v3.54c0,.79.56.79.56.79v.05h-1.86v-.05s.56,0,.56-.79v-6.89c0-.79-.56-.79-.56-.79v-.05h1.86v.05s-.56,0-.56.79v3.26h4.47v-3.26c0-.79-.56-.79-.56-.79v-.05h1.86v.05s-.56,0-.56.79Z"/>
    <path class="cls-1" d="M84.84,67.08l-.09,1.68h-6.15v-.05s.56,0,.56-.79v-6.89c0-.79-.56-.79-.56-.79v-.05h6.05l.09,1.68h-.05s-.14-1.58-2.09-1.58h-2.7v4h2.33c.79,0,.79-.56.79-.56h.05v1.21h-.05s0-.56-.79-.56h-2.33v4.28h2.79c1.96,0,2.09-1.58,2.09-1.58h.05Z"/>
    <path class="cls-1" d="M99,61.03v6.89c0,.79.56.79.56.79v.05h-1.86v-.05s.56,0,.56-.79v-7.47l-2.98,8.31h-.09l-2.98-7.72v6.88c0,.79.56.79.56.79v.05h-1.21v-.05s.56,0,.56-.79v-6.89c0-.15-.02-.28-.06-.38l-.02-.06c-.15-.35-.48-.35-.48-.35v-.05h1.07l2.92,7.57,2.71-7.57h1.3v.05s-.56,0-.56.79Z"/>
    <path class="cls-1" d="M108.92,68.71v.05h-1.86v-.05s.54,0,.22-.79l-.8-1.96h-3.96l-.8,1.97c-.31.77.22.78.22.78v.05h-1.21v-.05s.58-.02.9-.79l3.15-7.73h.09l3.15,7.73c.32.77.9.79.9.79ZM106.44,65.87l-1.94-4.77-1.94,4.77h3.89Z"/>
    <path class="cls-1" d="M116.61,61.03v6.89c0,.79.56.79.56.79v.05h-1.86v-.05s.56,0,.56-.79v-3.54h-4.47v3.54c0,.79.56.79.56.79v.05h-1.86v-.05s.56,0,.56-.79v-6.89c0-.79-.56-.79-.56-.79v-.05h1.86v.05s-.56,0-.56.79v3.26h4.47v-3.26c0-.79-.56-.79-.56-.79v-.05h1.86v.05s-.56,0-.56.79Z"/>
    <path class="cls-1" d="M125.67,60.19v.05s-.56,0-.56.79v5.12c0,1.68-1.16,2.7-3.07,2.7-1.09,0-2.07-.41-2.82-1.1-.46-.4-.44.08-.44.08h-.05l-.14-2.23h.05c.84,2.14,2.23,3.31,3.85,3.14,1.3-.13,1.88-1.09,1.88-2.58v-5.12c0-.79-.56-.79-.56-.79v-.05h1.86Z"/>
    <path class="cls-1" d="M135.56,64.48c0,2.42-1.88,4.38-4.19,4.38s-4.19-1.96-4.19-4.38,1.88-4.38,4.19-4.38,4.19,1.96,4.19,4.38ZM134.75,64.12c-.25-2.35-1.96-4.1-3.83-3.9-1.87.2-3.18,2.26-2.93,4.62s1.96,4.1,3.83,3.9c1.87-.2,3.18-2.26,2.93-4.61Z"/>
    <path class="cls-1" d="M143.81,60.19v.05s-.6.03-1.06.79l-2.48,4.15v2.74c0,.79.56.79.56.79v.05h-1.86v-.05s.56,0,.56-.79v-2.27l-2.76-4.62c-.46-.76-1.06-.79-1.06-.79v-.05h1.86v.05s-.52.01-.06.79l2.57,4.31,2.57-4.31c.46-.77-.06-.79-.06-.79v-.05h1.21Z"/>
    <path class="cls-1" d="M157.29,66.76c0,1.26-.88,2.1-3.26,2.1-1.35,0-2.35-.41-3.1-1.1-.46-.4-.44.08-.44.08h-.05l-.14-2.23h.05c.84,2.14,2.14,3.17,3.82,3.17,1.16,0,2.65-.51,2.65-1.68,0-3.26-6.52-1.21-6.52-4.84,0-1.3,1.12-2.14,3.26-2.14,1.3,0,2.25.41,3.01,1.1.46.4.44-.08.44-.08h.05l.14,2.23h-.05c-.84-2.14-2.1-3.17-3.77-3.17-1.02,0-2.61.56-2.61,1.77,0,3.17,6.52,1.12,6.52,4.8Z"/>
    <path class="cls-1" d="M167.39,64.48c0,2.42-1.88,4.38-4.19,4.38s-4.19-1.96-4.19-4.38,1.88-4.38,4.19-4.38,4.19,1.96,4.19,4.38ZM166.58,64.12c-.25-2.35-1.96-4.1-3.83-3.9-1.87.2-3.18,2.26-2.93,4.62s1.96,4.1,3.83,3.9c1.87-.2,3.18-2.26,2.93-4.61Z"/>
    <path class="cls-1" d="M176.71,66.9c-.75,1.18-2,1.96-3.54,1.96-2.31,0-4.19-1.96-4.19-4.38s1.88-4.38,4.19-4.38c1.09,0,2.07.41,2.82,1.1.46.4.44-.08.44-.08h.05l.14,2.23h-.05c-.84-2.14-2.23-3.31-3.85-3.14-1.87.19-3.2,2.26-2.93,4.62.26,2.3,1.75,3.74,3.71,3.74,1.4,0,2.51-.75,3.12-1.68h.09Z"/>
    <path class="cls-1" d="M179.59,61.03v6.89c0,.79.56.79.56.79v.05h-1.86v-.05s.56,0,.56-.79v-6.89c0-.79-.56-.79-.56-.79v-.05h1.86v.05s-.56,0-.56.79Z"/>
    <path class="cls-1" d="M187.96,67.08l-.09,1.68h-6.15v-.05s.56,0,.56-.79v-6.89c0-.79-.56-.79-.56-.79v-.05h6.05l.09,1.68h-.05s-.14-1.58-2.09-1.58h-2.7v4h2.33c.79,0,.79-.56.79-.56h.05v1.21h-.05s0-.56-.79-.56h-2.33v4.28h2.79c1.96,0,2.09-1.58,2.09-1.58h.05Z"/>
    <path class="cls-1" d="M196.14,61.87h-.05s-.14-1.58-2.09-1.58h-.93v7.64c0,.79.56.79.56.79v.05h-1.86v-.05s.56,0,.56-.79v-7.64h-.93c-1.96,0-2.09,1.58-2.09,1.58h-.05l.09-1.68h6.7l.09,1.68Z"/>
    <path class="cls-1" d="M205.16,60.19v.05s-.6.03-1.06.79l-2.48,4.15v2.74c0,.79.56.79.56.79v.05h-1.86v-.05s.56,0,.56-.79v-2.27l-2.76-4.62c-.46-.76-1.06-.79-1.06-.79v-.05h1.86v.05s-.52.01-.06.79l2.57,4.31,2.57-4.31c.46-.77-.06-.79-.06-.79v-.05h1.21Z"/>
  </g>
  <g>
    <g>
      <path class="cls-2" d="M167.16,127.91c.78-7.74,1.01-14.95.88-22.67l-5.84-.02c-.28,7.57.08,14.65,1.3,22.65l-20.62.05c1.15-4.21,1.74-8.19,2.21-12.53.63-7.76.6-15.37,0-23.13-.48-4.04-1.06-7.77-2.01-11.64l20.11-.02c-.74,7.66-1.2,14.52-1.03,22.01l5.86.04c.22-7.44-.23-14.37-1.3-22.05l20.55.02c-1.62,7.56-2.43,15-2.66,22.83.14,8.31.95,16.2,2.64,24.44l-20.08.03Z"/>
      <path class="cls-2" d="M66.11,127.42c-.2.68-2.03.59-2.44.18l-7.96-22.71-4-11.91c-.09,6.53-.29,12.95.07,19.57.31,5.63,3.23,10.48,5.97,15.32l-13.09.02c2.45-4.96,4.09-9.77,4.63-15.2l-.07-22.17c-.01-4.12-2.04-7.26-5.03-10.02l20.94-.02c1.98,6.31,3.43,12.16,6.76,18.26l5.42-18.21,19.67.02c-1.85,7.53-2.72,14.4-2.83,21.78.49,8.59,1.43,16.65,2.99,25.52l-19.89.04c.8-12.83,1.63-25.17.23-38.08l-11.36,37.61Z"/>
      <path class="cls-2" d="M107.13,112.94c-1.76,6.18.36,10.22,3.98,14.92l-13.31.04c2.38-3.32,3.75-6.7,5.27-10.44l7.51-22.58-5.68-14.35,18.48-.04,18.63,47.32-21.8.03c.49-5.45-.39-10.2-2.15-14.95l-10.93.04ZM117.34,110.76c-1.88-4.72-3.35-8.36-5.41-12.87l-4.23,12.95,9.64-.08Z"/>
    </g>
    <g>
      <path class="cls-2" d="M132.9,158.48c0,13.45-10.9,24.35-24.35,24.35s-24.35-10.9-24.35-24.35,10.9-24.35,24.35-24.35,24.35,10.9,24.35,24.35ZM115.67,173.52c-1.2-10.33-3.48-20.29-6.88-30.07-.73-2.11-2.7-6.91-5.08-6.65-2.19.24-2.29,5.38-2.09,7.16,1.18,10.3,3.54,20.24,6.99,29.97.7,1.98,2.75,6.48,4.95,6.29,2.06-.18,2.3-5.05,2.11-6.7Z"/>
      <path class="cls-2" d="M157.94,159.87c.22,7.6.93,14.83,2.45,22.22l-21.43-.06h0c1.83-13.37-.33-26.98-6.17-39.14l-3.93-8.2,21.67-.03c.67,7.64,2.85,14.56,6.62,21.14,1.84-3.65,3.17-7.25,3.69-11.12.12-3.69-.36-6.95-2.59-9.99h14.06c-3.27,3.27-14.38,25.18-14.38,25.18Z"/>
      <path class="cls-2" d="M81.07,167.26c.06,9.13-3.65,17.48-13.2,19.63-2.79.63-5.66.69-8.73.39,1.69-2.78,2.68-5.48,3.43-8.72,1.63-8.88,2.14-17.79,1.74-26.85-.59-6.09-1.93-11.67-4.85-17.05h23.6c-1.22,6.2-1.83,12.21-2.01,18.5v14.1Z"/>
    </g>
  </g>
  <g>
    <path class="cls-2" d="M45.19,205.35c.1,0,.22-.01.37-.03s.25-.07.33-.14c.12-.1.26-.32.42-.63.15-.32.31-.69.48-1.12s.34-.89.51-1.38.33-.97.49-1.42c.12-.35.27-.73.42-1.15.16-.41.31-.83.44-1.23.14-.41.25-.78.36-1.13.1-.34.16-.62.19-.83.01-.09-.02-.16-.09-.22s-.18-.08-.31-.07c-.28,0-.51,0-.68.01s-.31.02-.42.03-.2.02-.27.05c-.07.02-.16.05-.25.07-.08.04-.17.11-.28.24-.11.12-.21.25-.31.4-.1.14-.2.28-.28.41s-.15.23-.2.29l-.19-.09c.1-.28.21-.55.33-.83s.23-.56.35-.88h7.71c-.11.31-.21.61-.29.88s-.16.54-.25.83l-.24.09c-.01-.06-.01-.16,0-.29.01-.13.02-.27.02-.41s0-.28-.03-.4c-.02-.12-.05-.2-.11-.24-.07-.03-.13-.05-.2-.07-.06-.02-.14-.04-.25-.05s-.23-.02-.39-.03-.37-.01-.65-.01c-.12,0-.25.02-.36.07-.12.06-.21.13-.26.22-.14.21-.27.49-.42.83s-.29.72-.43,1.12c-.15.4-.29.81-.44,1.24-.15.42-.28.81-.41,1.17-.16.45-.33.92-.51,1.41-.18.49-.35.94-.49,1.36-.15.42-.26.79-.33,1.11-.07.32-.08.54-.03.65.03.07.11.12.23.14s.23.03.33.03l-.07.2h-3.62l.07-.2Z"/>
    <path class="cls-2" d="M52.55,205.53c.23-.68.45-1.37.68-2.06.23-.69.44-1.37.65-2.02.21-.66.41-1.28.59-1.86.19-.58.35-1.1.49-1.56s.25-.84.33-1.15c.08-.31.12-.51.12-.61-.02-.05-.07-.08-.14-.09-.07,0-.14,0-.23,0s-.17.02-.26.03c-.09.01-.16.01-.22,0l.15-.18c.17-.02.38-.04.63-.08s.51-.07.77-.11c.27-.03.53-.07.79-.1.26-.03.49-.05.68-.05-.59,1.65-1.16,3.29-1.72,4.91-.56,1.62-1.09,3.26-1.59,4.93h-1.73ZM54.67,203.8c.12-.24.29-.54.49-.91s.44-.76.7-1.18c.26-.42.54-.83.85-1.25s.63-.79.96-1.13c.33-.33.68-.6,1.03-.8.35-.21.7-.3,1.04-.28.52.02.91.17,1.16.46s.32.72.2,1.3c-.04.17-.12.38-.23.66-.11.27-.23.57-.37.89s-.28.66-.42,1c-.15.34-.28.66-.4.97-.12.31-.21.58-.27.81-.06.24-.08.41-.06.52.02.1.05.15.09.16s.08,0,.11,0c.08,0,.16-.05.25-.12.08-.07.17-.17.25-.27s.16-.22.24-.33c.07-.11.14-.22.2-.31l.22.13c-.27.57-.58.96-.93,1.19-.35.23-.7.33-1.05.31-.15,0-.3-.04-.47-.09-.16-.05-.3-.14-.41-.25-.11-.11-.18-.26-.23-.45-.05-.18-.03-.41.05-.68.09-.33.2-.65.33-.97s.27-.63.41-.94.28-.63.42-.94c.14-.31.27-.62.38-.94.18-.53.27-.91.25-1.15-.01-.23-.1-.35-.27-.36-.25,0-.52.11-.82.34-.29.23-.6.53-.91.9s-.62.79-.93,1.26c-.31.47-.6.94-.87,1.41-.28.47-.54.92-.77,1.35-.24.43-.44.79-.59,1.08l.37-1.38Z"/>
    <path class="cls-2" d="M64.57,204.85c-.16.19-.33.34-.5.46-.18.11-.35.19-.52.23s-.32.06-.46.06c-.46,0-.79-.12-.98-.37-.19-.25-.22-.61-.07-1.08.04-.14.09-.27.14-.39s.09-.24.14-.35c.05-.12.09-.24.14-.37.05-.13.1-.27.16-.43.07-.18.16-.42.27-.71.11-.29.23-.6.35-.92.12-.32.22-.62.31-.9.09-.28.14-.52.15-.7.03-.13.04-.24.03-.33-.01-.09-.05-.12-.12-.1-.1.04-.21.11-.31.22-.11.11-.21.23-.31.36-.1.13-.18.26-.25.37-.07.12-.11.2-.14.24l-.27-.08c.14-.34.3-.63.5-.86s.4-.42.61-.58c.21-.15.41-.26.61-.33.2-.07.37-.1.52-.09.28,0,.5.06.65.15.15.09.25.21.31.36s.06.32.03.52c-.03.2-.09.4-.18.6l-1.1,2.79c-.1.25-.2.48-.28.71-.08.23-.16.44-.22.63-.06.19-.11.36-.14.49-.03.14-.04.23-.03.29-.01.13.01.22.08.26.06.04.12.07.16.07.08,0,.17-.05.27-.15.1-.1.2-.21.3-.34.1-.13.18-.25.25-.36.07-.11.1-.19.1-.22l.22.13c-.12.3-.27.54-.42.73ZM64.27,197.3c-.13-.15-.16-.34-.08-.56.06-.21.21-.39.46-.55s.52-.24.82-.24.5.08.64.24c.14.16.18.34.13.55-.08.22-.25.4-.51.56-.26.15-.53.23-.81.23s-.51-.08-.64-.23Z"/>
    <path class="cls-2" d="M66.11,205.54l1.05-2.93c.08-.24.16-.48.25-.72.09-.24.18-.47.25-.69.18-.52.33-.96.43-1.31s.13-.62.08-.81c-.02-.1-.08-.13-.18-.09-.1.04-.2.13-.32.26-.12.13-.24.27-.37.44-.12.17-.22.32-.29.47l-.27-.07c.11-.28.27-.55.46-.81.19-.26.41-.49.65-.67.24-.19.49-.32.76-.39.27-.07.54-.06.81.05.19.08.32.21.38.41.06.19.08.42.05.69-.03.27-.09.56-.19.88-.1.32-.21.66-.35,1l-1.51,4.32h-1.71ZM68.39,203.6c.11-.18.26-.44.44-.77.18-.33.39-.69.63-1.09.24-.39.5-.79.79-1.21.29-.41.59-.78.91-1.12.32-.34.65-.61.99-.83.34-.22.7-.34,1.06-.35.2,0,.4.03.6.08.2.05.37.15.52.28.15.13.25.32.31.55.06.23.05.52-.03.86-.05.17-.12.39-.24.67-.11.28-.24.59-.38.93-.14.34-.29.68-.44,1.04-.15.35-.28.69-.39,1s-.19.58-.25.81c-.06.23-.06.38,0,.47.07.11.16.14.28.09s.23-.15.34-.28c.11-.13.21-.27.3-.42.09-.15.15-.27.19-.35l.22.11c-.09.29-.22.53-.39.73-.17.2-.36.36-.57.49-.21.13-.43.21-.66.25-.23.04-.45.04-.65,0-.16-.03-.3-.09-.42-.17-.12-.08-.21-.19-.29-.33-.07-.14-.11-.31-.12-.52s.04-.46.14-.76c.12-.31.24-.59.36-.86s.23-.54.36-.8c.12-.26.25-.53.37-.81s.24-.57.37-.88c.2-.52.3-.93.3-1.21,0-.28-.13-.4-.38-.36-.25.04-.52.18-.81.43-.29.25-.59.56-.89.93-.31.37-.61.78-.9,1.24-.29.45-.57.91-.83,1.36s-.5.88-.72,1.28-.4.74-.55,1.01l.44-1.49Z"/>
    <path class="cls-2" d="M74.81,205.55c.32-.82.63-1.65.93-2.49s.59-1.66.86-2.46.51-1.55.74-2.27c.23-.71.42-1.36.59-1.93,0-.08,0-.14-.03-.19-.02-.05-.07-.07-.14-.07-.09,0-.17,0-.23.02-.06.01-.14.02-.23.02-.01,0-.05,0-.11,0-.06,0-.1,0-.13,0l.17-.2c.19,0,.41-.03.66-.07.25-.03.5-.07.76-.1.26-.04.52-.07.77-.09s.48-.04.69-.04l-2.16,5.91-1.36,3.96h-1.8ZM78.15,200.75c.2-.25.45-.53.75-.83.29-.3.62-.58.97-.84.35-.26.72-.48,1.12-.66s.81-.27,1.24-.28c.37,0,.68.08.91.27.23.19.36.43.38.74.01.47-.1.88-.35,1.24-.24.35-.56.65-.93.9s-.78.45-1.21.61c-.43.16-.82.28-1.15.37.03.14.14.37.31.67.17.31.36.62.58.94.22.32.45.6.7.84s.47.36.69.36c.07,0,.14-.02.23-.05s.17-.07.25-.12c.08-.05.17-.1.26-.17.09-.07.17-.13.25-.2l.1.21c-.28.34-.65.58-1.1.73s-.91.19-1.38.12c-.35-.05-.66-.2-.93-.45s-.52-.53-.73-.84c-.21-.31-.41-.64-.58-.97s-.33-.61-.49-.83l.19-.31c.37-.02.73-.08,1.07-.18.34-.11.66-.25.96-.43.3-.18.57-.4.8-.64.23-.24.42-.52.55-.83.04-.11.09-.25.14-.41.05-.16.08-.32.08-.46s-.02-.27-.07-.37c-.05-.1-.16-.14-.31-.14-.37.03-.75.16-1.11.4-.37.24-.72.53-1.05.86-.33.33-.65.69-.93,1.07-.29.38-.53.72-.74,1.01l.54-1.31Z"/>
    <path class="cls-2" d="M84.5,205.33c-.13-.16-.16-.34-.09-.56.07-.21.22-.39.46-.54.24-.15.51-.23.81-.23s.52.08.66.23c.15.15.18.33.1.54-.08.22-.25.41-.5.56s-.52.24-.81.24-.51-.08-.64-.24Z"/>
    <path class="cls-2" d="M90.99,205.35c.19,0,.35-.03.47-.06.12-.03.21-.07.27-.11.11-.1.23-.25.35-.46.12-.21.24-.46.36-.76.12-.3.24-.63.37-1,.13-.37.27-.77.43-1.2.61-1.72,1.06-3.05,1.35-4,.29-.94.41-1.49.36-1.65-.02-.09-.09-.15-.2-.18-.11-.03-.28-.05-.49-.04l.05-.2h3.57c1.31,0,2.22.22,2.73.65s.63,1.09.37,2.01c-.14.46-.35.87-.63,1.22-.28.35-.62.64-1.02.86-.4.23-.84.4-1.33.52-.49.12-1.01.18-1.55.19h-1.41s.1-.24.1-.24h.83c.72-.03,1.34-.27,1.85-.74.51-.47.91-1.11,1.19-1.92.16-.45.24-.82.24-1.11s-.06-.53-.19-.71c-.12-.18-.3-.31-.52-.38-.22-.07-.47-.11-.74-.11h-.25c-.11.01-.21.04-.29.09s-.14.11-.17.19l-2.04,5.61c-.16.43-.31.82-.44,1.19s-.25.69-.35.98c-.1.29-.16.54-.2.74s-.02.36.03.46c.01.03.06.05.14.07.08.02.19.04.31.05.12.01.25.02.37.03s.22.01.31.01l-.08.2h-4.23l.07-.2Z"/>
    <path class="cls-2" d="M103.06,204.81c-.16.19-.33.34-.5.45-.18.11-.35.19-.53.24-.18.05-.33.07-.47.07-.12,0-.27-.02-.43-.05s-.31-.1-.45-.2c-.14-.1-.23-.26-.28-.46-.05-.21-.03-.49.06-.84.05-.2.14-.51.3-.94.15-.42.33-.91.53-1.45.2-.54.41-1.1.62-1.69.21-.58.4-1.13.58-1.64s.31-.95.42-1.32c.1-.37.14-.61.12-.73-.03-.05-.08-.08-.14-.09s-.14,0-.22,0-.17.02-.26.03c-.09.01-.17.01-.24,0l.12-.18c.18-.02.4-.04.65-.08s.51-.07.77-.11c.27-.03.53-.07.79-.1.26-.03.49-.05.68-.05l-2.45,7.07c-.18.47-.34.89-.48,1.26-.14.37-.18.64-.14.83.01.09.04.14.09.16s.09.03.13.03c.08,0,.17-.04.27-.13.1-.09.2-.19.28-.3s.16-.23.23-.35.12-.22.15-.3l.19.16c-.1.29-.23.53-.39.71Z"/>
    <path class="cls-2" d="M105.27,205.26c-.25-.21-.43-.48-.54-.83-.11-.34-.14-.75-.1-1.2.04-.46.16-.94.36-1.45.24-.61.55-1.15.93-1.6.38-.46.8-.84,1.26-1.15.46-.31.95-.53,1.48-.68s1.05-.22,1.59-.22c.15,0,.36,0,.64.02.28.02.58.06.88.12.31.06.58.13.82.23.24.1.39.22.45.38l-.8,2.11c-.15.38-.29.75-.42,1.11-.13.37-.25.73-.37,1.07-.15.4-.26.74-.33,1.02-.07.28-.1.5-.08.66.01.11.04.18.1.19.06.01.1.02.12.02.08,0,.17-.05.28-.15.11-.1.21-.21.3-.33.09-.12.17-.24.23-.36.06-.12.1-.19.11-.23l.22.1c-.09.3-.21.54-.37.73-.15.19-.31.34-.48.45s-.34.19-.51.24c-.17.04-.32.07-.46.07-.59.04-.97-.09-1.16-.41-.18-.32-.17-.76.03-1.32l1.27-3.48s.04-.09.06-.14.04-.09.06-.14c.15-.4.27-.72.36-.97.09-.24.08-.43-.03-.55-.07-.08-.18-.13-.33-.14-.15-.02-.33-.03-.54-.04-.47,0-.89.1-1.26.29-.36.19-.68.45-.95.78-.27.33-.51.7-.72,1.11-.21.42-.41.84-.59,1.26-.15.37-.28.74-.39,1.13s-.19.75-.23,1.07c-.04.33-.03.6.04.81.07.21.21.32.42.34.28.02.61-.14.99-.47.38-.33.77-.78,1.17-1.34.4-.56.81-1.2,1.24-1.92.42-.72.83-1.46,1.21-2.23l-.24,1.02c-.12.21-.27.49-.45.84s-.37.73-.59,1.13c-.22.4-.47.8-.74,1.21-.27.41-.57.77-.88,1.09-.32.32-.65.58-1.01.79s-.74.3-1.15.29c-.38,0-.7-.12-.95-.32Z"/>
    <path class="cls-2" d="M111.78,207.87c-.16-.14-.26-.3-.31-.47-.05-.17-.05-.34.02-.48s.19-.24.38-.26c.23.03.43.08.61.16s.36.14.54.16c.19.04.37.05.54.06.17,0,.35-.02.54-.08.19-.06.4-.17.61-.33.22-.16.48-.41.78-.74l1.46-1.17c.17-.17.38-.4.64-.66.25-.27.52-.55.79-.86.27-.31.54-.62.79-.96s.46-.66.63-.98.27-.63.31-.92c.04-.29-.01-.54-.16-.76-.12-.04-.23-.09-.32-.14-.08-.04-.15-.1-.22-.18-.07-.07-.1-.16-.08-.27.01-.12.05-.23.13-.31s.16-.16.26-.21c.1-.05.21-.09.32-.12.11-.03.21-.04.31-.04.07,0,.15,0,.24.03.09.02.18.05.26.08.08.04.17.1.25.18.08.08.14.19.19.33.07.24.03.55-.12.94-.15.39-.38.83-.69,1.3-.31.48-.68.98-1.11,1.51-.43.53-.89,1.05-1.39,1.57-.5.52-1.01,1.01-1.55,1.47s-1.04.88-1.54,1.23c-.49.35-.95.63-1.38.84-.42.21-.78.31-1.08.3-.27,0-.49-.08-.65-.22ZM115.44,205.99c.07-.15.12-.38.17-.71.04-.32.07-.69.08-1.1.01-.41,0-.85,0-1.31-.02-.46-.05-.91-.1-1.33-.05-.42-.12-.81-.21-1.16-.09-.35-.2-.61-.32-.79-.12-.18-.27-.26-.43-.23s-.34.2-.54.52l-.24-.22c.15-.2.32-.41.52-.62s.41-.39.63-.53.45-.22.69-.24c.24-.02.46.07.68.26.17.15.31.39.43.73.12.34.22.73.31,1.15s.15.88.19,1.35c.04.47.06.91.07,1.31,0,.4,0,.75-.04,1.04s-.08.47-.15.54l-1.71,1.34Z"/>
    <path class="cls-2" d="M119.87,205.33c-.13-.16-.16-.34-.09-.56.07-.21.22-.39.46-.54.24-.15.51-.23.81-.23s.52.08.66.23c.15.15.18.33.1.54-.08.22-.25.41-.5.56s-.52.24-.81.24-.51-.08-.64-.24Z"/>
    <path class="cls-2" d="M130.1,195.97c-.12-.02-.24-.03-.34-.03l.08-.25h2.7l.48,7.39-.03.14,5.79-7.53h2.92l-.1.25c-.1,0-.22.01-.37.03-.14.02-.26.07-.35.14-.14.11-.29.34-.46.67s-.34.73-.52,1.18c-.18.45-.35.92-.52,1.41-.17.49-.33.95-.49,1.37-.17.45-.35.92-.53,1.38-.19.47-.35.9-.48,1.31s-.24.76-.31,1.05c-.07.3-.08.5-.03.62.03.07.12.12.25.14s.25.03.35.03l-.1.25h-3.58l.08-.25c.1,0,.23-.01.37-.03.15-.02.26-.07.34-.14.14-.1.28-.31.43-.6.15-.3.31-.65.48-1.06s.33-.85.5-1.33c.17-.48.34-.94.51-1.38.12-.35.27-.73.42-1.13.16-.41.31-.8.44-1.2.14-.39.26-.76.37-1.1.11-.34.17-.62.2-.84l.08-.04-6.71,8.79-.68.3-.53-8.74h.07l-1.41,3.86c-.17.45-.35.92-.53,1.4-.19.48-.35.93-.5,1.36-.15.42-.26.79-.33,1.09-.07.31-.08.51-.03.63.03.07.11.12.24.14.12.02.24.03.34.03l-.08.25h-2.34l.1-.25c.1,0,.22-.01.36-.03.14-.02.26-.07.35-.14.14-.11.28-.31.43-.63.15-.31.31-.68.48-1.1s.34-.87.52-1.36c.18-.49.35-.96.52-1.4.15-.41.31-.86.5-1.34.19-.48.36-.94.51-1.38.15-.44.27-.82.35-1.15.08-.33.09-.55.03-.66-.03-.07-.11-.12-.24-.14Z"/>
    <path class="cls-2" d="M140.61,205.26c-.25-.21-.43-.48-.54-.83-.11-.34-.14-.75-.1-1.2.04-.46.16-.94.36-1.45.24-.61.55-1.15.93-1.6.38-.46.8-.84,1.26-1.15.46-.31.95-.53,1.48-.68s1.05-.22,1.59-.22c.15,0,.36,0,.64.02.28.02.58.06.88.12.31.06.58.13.82.23.24.1.39.22.45.38l-.8,2.11c-.15.38-.29.75-.42,1.11-.13.37-.25.73-.37,1.07-.15.4-.26.74-.33,1.02-.07.28-.1.5-.08.66.01.11.04.18.1.19.06.01.1.02.12.02.08,0,.17-.05.28-.15.11-.1.21-.21.3-.33.09-.12.17-.24.23-.36.06-.12.1-.19.11-.23l.22.1c-.09.3-.21.54-.37.73-.15.19-.31.34-.48.45s-.34.19-.51.24c-.17.04-.32.07-.46.07-.59.04-.97-.09-1.16-.41-.18-.32-.17-.76.03-1.32l1.27-3.48s.04-.09.06-.14.04-.09.06-.14c.15-.4.27-.72.36-.97.09-.24.08-.43-.03-.55-.07-.08-.18-.13-.33-.14-.15-.02-.33-.03-.54-.04-.47,0-.89.1-1.26.29-.36.19-.68.45-.95.78-.27.33-.51.7-.72,1.11-.21.42-.41.84-.59,1.26-.15.37-.28.74-.39,1.13s-.19.75-.23,1.07c-.04.33-.03.6.04.81.07.21.21.32.42.34.28.02.61-.14.99-.47.38-.33.77-.78,1.17-1.34.4-.56.81-1.2,1.24-1.92.42-.72.83-1.46,1.21-2.23l-.24,1.02c-.12.21-.27.49-.45.84s-.37.73-.59,1.13c-.22.4-.47.8-.74,1.21-.27.41-.57.77-.88,1.09-.32.32-.65.58-1.01.79s-.74.3-1.15.29c-.38,0-.7-.12-.95-.32Z"/>
    <path class="cls-2" d="M148.71,205.53c.23-.68.45-1.37.68-2.06.23-.69.44-1.37.65-2.02.21-.66.41-1.28.59-1.86.19-.58.35-1.1.49-1.56s.25-.84.33-1.15c.08-.31.12-.51.12-.61-.02-.05-.07-.08-.14-.09-.07,0-.14,0-.23,0s-.17.02-.26.03c-.09.01-.16.01-.22,0l.15-.18c.17-.02.38-.04.63-.08s.51-.07.77-.11c.27-.03.53-.07.79-.1.26-.03.49-.05.68-.05-.59,1.65-1.16,3.29-1.72,4.91-.56,1.62-1.09,3.26-1.59,4.93h-1.73ZM150.83,203.8c.12-.24.29-.54.49-.91s.44-.76.7-1.18c.26-.42.54-.83.85-1.25s.63-.79.96-1.13c.33-.33.68-.6,1.03-.8.35-.21.7-.3,1.04-.28.52.02.91.17,1.16.46s.32.72.2,1.3c-.04.17-.12.38-.23.66-.11.27-.23.57-.37.89s-.28.66-.42,1c-.15.34-.28.66-.4.97-.12.31-.21.58-.27.81-.06.24-.08.41-.06.52.02.1.05.15.09.16s.08,0,.11,0c.08,0,.16-.05.25-.12.08-.07.17-.17.25-.27s.16-.22.24-.33c.07-.11.14-.22.2-.31l.22.13c-.27.57-.58.96-.93,1.19-.35.23-.7.33-1.05.31-.15,0-.3-.04-.47-.09-.16-.05-.3-.14-.41-.25-.11-.11-.18-.26-.23-.45-.05-.18-.03-.41.05-.68.09-.33.2-.65.33-.97s.27-.63.41-.94.28-.63.42-.94c.14-.31.27-.62.38-.94.18-.53.27-.91.25-1.15-.01-.23-.1-.35-.27-.36-.25,0-.52.11-.82.34-.29.23-.6.53-.91.9s-.62.79-.93,1.26c-.31.47-.6.94-.87,1.41-.28.47-.54.92-.77,1.35-.24.43-.44.79-.59,1.08l.37-1.38Z"/>
    <path class="cls-2" d="M155.18,208.1c-.21-.02-.41-.06-.58-.12-.17-.06-.31-.14-.43-.23s-.2-.2-.25-.32c-.03-.11-.03-.24.02-.38.05-.14.13-.27.25-.38.12-.11.26-.2.43-.26.17-.06.37-.07.59-.01.11.03.18.09.2.18.02.08.02.18,0,.28-.02.1-.04.21-.06.33-.02.11-.03.22-.02.32.01.1.06.18.15.25.09.07.25.1.47.11.28-.04.54-.2.78-.46.24-.26.44-.56.62-.9s.33-.69.45-1.04c.12-.35.23-.64.31-.85l.88-2.54c.12-.35.24-.68.35-.99s.2-.59.28-.85c.08-.26.14-.48.18-.67.04-.19.04-.35,0-.47-.02-.05-.07-.08-.14-.09-.07,0-.15,0-.24.01-.08.01-.17.03-.25.05s-.16.02-.23,0l.15-.34c.17-.02.38-.04.64-.08.25-.04.52-.07.78-.11.27-.03.53-.07.79-.1.26-.03.48-.05.66-.05l-1.88,5.4c-.16.45-.34.93-.55,1.42-.21.49-.47.95-.79,1.36-.32.41-.71.77-1.18,1.05-.47.29-1.04.45-1.72.5-.23,0-.45,0-.66-.02ZM160.55,197.3c-.13-.15-.16-.34-.08-.56.07-.21.22-.39.46-.55.24-.16.51-.24.82-.24.28,0,.5.08.65.24.15.16.19.34.12.55-.08.22-.25.4-.5.56-.25.15-.52.23-.81.23-.31,0-.52-.08-.65-.23Z"/>
    <path class="cls-2" d="M168.75,198.36c.37.17.66.41.87.73.2.32.31.72.33,1.19.02.47-.08,1-.3,1.6-.2.59-.48,1.13-.82,1.6-.35.48-.74.88-1.17,1.21-.44.33-.9.59-1.39.76-.49.17-.99.26-1.49.26s-.95-.09-1.31-.26c-.36-.17-.64-.43-.83-.76-.19-.33-.29-.74-.31-1.21-.01-.48.08-1.01.29-1.6.2-.59.48-1.12.82-1.59.34-.47.72-.86,1.15-1.19.43-.32.89-.57,1.37-.74.48-.17.98-.26,1.49-.26s.93.08,1.31.25ZM168.17,200.58c.11-.42.17-.79.16-1.13,0-.33-.08-.6-.22-.79s-.39-.29-.75-.29-.67.1-.96.3c-.29.2-.55.47-.78.8-.23.33-.44.71-.62,1.13-.18.42-.35.85-.51,1.3-.16.45-.29.89-.41,1.32-.11.43-.17.81-.18,1.15s.06.61.2.81.39.31.74.31.69-.11.98-.31c.29-.21.55-.48.79-.82.24-.34.45-.72.64-1.15s.37-.86.53-1.31c.15-.45.28-.89.39-1.31Z"/>
    <path class="cls-2" d="M170.46,205.54l1.05-2.93c.08-.24.16-.48.25-.72.09-.24.18-.47.25-.69.18-.52.33-.96.43-1.31s.13-.62.08-.81c-.02-.1-.08-.13-.18-.09-.1.04-.2.13-.32.26-.12.13-.24.27-.37.44-.12.17-.22.32-.29.47l-.27-.07c.11-.28.27-.55.46-.81.19-.26.41-.49.65-.67.24-.19.49-.32.76-.39.27-.07.54-.06.81.05.19.08.32.21.38.41.06.19.08.42.05.69-.03.27-.09.56-.19.88-.1.32-.21.66-.35,1l-1.51,4.32h-1.71ZM172.74,203.6c.11-.18.26-.44.44-.77.18-.33.39-.69.63-1.09.24-.39.5-.79.79-1.21.29-.41.59-.78.91-1.12.32-.34.65-.61.99-.83.34-.22.7-.34,1.06-.35.2,0,.4.03.6.08.2.05.37.15.52.28.15.13.25.32.31.55.06.23.05.52-.03.86-.05.17-.12.39-.24.67-.11.28-.24.59-.38.93-.14.34-.29.68-.44,1.04-.15.35-.28.69-.39,1s-.19.58-.25.81c-.06.23-.06.38,0,.47.07.11.16.14.28.09s.23-.15.34-.28c.11-.13.21-.27.3-.42.09-.15.15-.27.19-.35l.22.11c-.09.29-.22.53-.39.73-.17.2-.36.36-.57.49-.21.13-.43.21-.66.25-.23.04-.45.04-.65,0-.16-.03-.3-.09-.42-.17-.12-.08-.21-.19-.29-.33-.07-.14-.11-.31-.12-.52s.04-.46.14-.76c.12-.31.24-.59.36-.86s.23-.54.36-.8c.12-.26.25-.53.37-.81s.24-.57.37-.88c.2-.52.3-.93.3-1.21,0-.28-.13-.4-.38-.36-.25.04-.52.18-.81.43-.29.25-.59.56-.89.93-.31.37-.61.78-.9,1.24-.29.45-.57.91-.83,1.36s-.5.88-.72,1.28-.4.74-.55,1.01l.44-1.49Z"/>
    <path class="cls-2" d="M180.15,207.95c-.37-.11-.66-.25-.88-.42s-.37-.38-.45-.62-.06-.5.05-.78c0,.03,0,.02.03-.01.02-.04.04-.08.08-.14.03-.06.09-.12.17-.18.08-.06.18-.11.29-.14.14-.02.27-.02.42,0,.14.02.27.06.37.12.11.06.19.14.25.23s.07.19.05.29c-.09.24-.14.47-.16.67-.02.2.03.37.13.51s.27.24.49.31c.23.07.54.1.93.09.48,0,.91-.08,1.3-.22s.71-.3.95-.5c.24-.2.4-.43.48-.69.08-.26.05-.52-.08-.78-.08-.15-.27-.24-.56-.27-.29-.03-.63-.04-1-.03-.37.01-.75.03-1.14.05-.39.02-.7.01-.95-.02-.24-.02-.45-.07-.63-.16-.18-.09-.33-.19-.44-.32s-.18-.27-.2-.43c-.02-.16.03-.34.13-.53.15-.3.42-.54.81-.73s.85-.28,1.38-.28l.98.14c-.64.04-1.17.11-1.59.22-.41.11-.67.25-.76.41-.02.07.02.13.13.2s.26.09.47.09c.18,0,.39-.02.64-.02.24,0,.5-.01.76-.03.27-.01.54-.02.81-.03.27,0,.53,0,.76,0,.25,0,.48.02.71.07s.42.12.59.22c.17.1.32.21.42.35.11.14.17.3.18.49.03.39-.06.78-.27,1.15-.22.38-.53.71-.94.99-.41.28-.92.51-1.51.68s-1.24.24-1.94.22c-.46-.02-.88-.08-1.25-.18ZM181.07,199.73c.29-.32.63-.6,1.03-.84s.84-.43,1.32-.57c.49-.14.99-.21,1.51-.21.48,0,.9.07,1.28.21.38.14.69.33.93.57s.4.52.48.84c.08.32.06.67-.05,1.03-.12.35-.33.68-.62.99-.29.31-.63.58-1.03.81-.4.23-.83.4-1.32.53s-.97.19-1.47.18c-.52,0-.98-.07-1.37-.2s-.7-.29-.94-.51c-.24-.22-.39-.48-.47-.78-.07-.3-.05-.64.08-1.02.12-.37.33-.71.62-1.03ZM182.14,201.55c-.03.27-.01.51.04.73.06.21.17.39.33.53s.4.21.72.21.59-.07.85-.21c.26-.14.5-.32.71-.54.21-.22.4-.46.55-.73.15-.27.27-.53.37-.78.1-.26.17-.53.2-.82.03-.28.02-.54-.03-.77-.06-.23-.17-.42-.33-.57-.17-.15-.4-.22-.71-.22s-.59.07-.86.22c-.27.15-.51.34-.72.57-.22.23-.4.49-.56.77-.16.28-.29.56-.39.82-.09.25-.15.52-.18.79ZM186.9,198.9s.04-.09.08-.13c.04-.04.1-.09.15-.14s.11-.09.17-.14.1-.08.12-.12c.07-.08.08-.16.04-.24-.04-.08-.09-.17-.16-.26-.07-.09-.14-.2-.22-.31s-.12-.25-.14-.4c.02-.1.08-.2.16-.28.08-.08.18-.14.29-.2.11-.05.22-.09.33-.11.11-.02.21-.03.31-.03.2,0,.35.04.44.13s.15.2.19.34c.03.23-.02.47-.16.72-.14.25-.34.49-.6.72-.11.1-.25.22-.42.36-.17.13-.33.24-.48.32l-.1-.24Z"/>
  </g>
</svg>