<?xml version="1.0" encoding="UTF-8"?>
<svg id="Layer_1" data-name="Layer 1" xmlns="http://www.w3.org/2000/svg" viewBox="0 0 231.46 251.78">
  <defs>
    <style>
      .cls-1 {
        fill: #500234;
      }
    </style>
  </defs>
  <path class="cls-1" d="M136.44,137.56l-8.36-5.04-2.67,9.94c-.21.76-1.3.72-1.45-.06l-1.75-9.61-8.58,5.65c-.67.44-1.47-.35-1.03-1.03l5.65-8.58-9.61-1.75c-.78-.14-.82-1.24-.06-1.45l9.94-2.67-5.04-8.36c-.4-.66.36-1.42,1.02-1.02l8.36,5.04,2.67-9.94c.21-.76,1.3-.72,1.45.06l1.75,9.61,8.58-5.65c.67-.44,1.47.35,1.03,1.03l-5.65,8.58,9.61,1.75c.78.14.82,1.24.06,1.45l-9.94,2.67,5.04,8.36c.4.66-.36,1.42-1.02,1.02Z"/>
</svg>