<?xml version="1.0" encoding="UTF-8"?>
<svg id="Layer_1" data-name="Layer 1" xmlns="http://www.w3.org/2000/svg" viewBox="0 0 231.46 251.78">
  <defs>
    <style>
      .cls-1 {
        fill: #500234;
      }
    </style>
  </defs>
  <path class="cls-1" d="M167.16,118.66c.78-7.74,1.01-14.95.88-22.67l-5.84-.02c-.28,7.57.08,14.65,1.3,22.65l-20.62.05c1.15-4.21,1.74-8.19,2.21-12.53.63-7.76.6-15.37,0-23.13-.48-4.04-1.06-7.77-2.01-11.64l20.11-.02c-.74,7.66-1.2,14.52-1.03,22.01l5.86.04c.22-7.44-.23-14.37-1.3-22.05l20.55.02c-1.62,7.56-2.43,15-2.66,22.83.14,8.31.95,16.2,2.64,24.44l-20.08.03Z"/>
  <path class="cls-1" d="M66.11,118.18c-.2.68-2.03.59-2.44.18l-7.96-22.71-4-11.91c-.09,6.53-.29,12.95.07,19.57.31,5.63,3.23,10.48,5.97,15.32l-13.09.02c2.45-4.96,4.09-9.77,4.63-15.2l-.07-22.17c-.01-4.12-2.04-7.26-5.03-10.02l20.94-.02c1.98,6.31,3.43,12.16,6.76,18.26l5.42-18.21,19.67.02c-1.85,7.53-2.72,14.4-2.83,21.78.49,8.59,1.43,16.65,2.99,25.52l-19.89.04c.8-12.83,1.63-25.17.23-38.08l-11.36,37.61Z"/>
  <path class="cls-1" d="M134.92,149.24c0,13.45-10.9,24.35-24.35,24.35s-24.35-10.9-24.35-24.35,10.9-24.35,24.35-24.35,24.35,10.9,24.35,24.35ZM117.69,164.27c-1.2-10.33-3.48-20.29-6.88-30.07-.73-2.11-2.7-6.91-5.08-6.65-2.19.24-2.29,5.38-2.09,7.16,1.18,10.3,3.54,20.24,6.99,29.97.7,1.98,2.75,6.48,4.95,6.29,2.06-.18,2.3-5.05,2.11-6.7Z"/>
  <path class="cls-1" d="M107.13,103.7c-1.76,6.18.36,10.22,3.98,14.92l-13.31.04c2.38-3.32,3.75-6.7,5.27-10.44l7.51-22.58-5.68-14.35,18.48-.04,18.63,47.32-21.8.03c.49-5.45-.39-10.2-2.15-14.95l-10.93.04ZM117.34,101.52c-1.88-4.72-3.35-8.36-5.41-12.87l-4.23,12.95,9.64-.08Z"/>
  <path class="cls-1" d="M159.96,150.63c.22,7.6.93,14.83,2.45,22.22l-21.43-.06h0c1.83-13.37-.33-26.98-6.17-39.14l-3.93-8.2,21.67-.03c.67,7.64,2.85,14.56,6.62,21.14,1.84-3.65,3.17-7.25,3.69-11.12.12-3.69-.36-6.95-2.59-9.99h14.06c-3.27,3.27-14.38,25.18-14.38,25.18Z"/>
  <path class="cls-1" d="M83.09,158.02c.06,9.13-3.65,17.48-13.2,19.63-2.79.63-5.66.69-8.73.39,1.69-2.78,2.68-5.48,3.43-8.72,1.63-8.88,2.14-17.79,1.74-26.85-.59-6.09-1.93-11.67-4.85-17.05h23.6c-1.22,6.2-1.83,12.21-2.01,18.5v14.1Z"/>
</svg>