<?xml version="1.0" encoding="UTF-8"?>
<svg id="Layer_1" data-name="Layer 1" xmlns="http://www.w3.org/2000/svg" viewBox="0 0 231.46 251.78">
  <defs>
    <style>
      .cls-1 {
        stroke: #efcad1;
        stroke-linecap: round;
        stroke-linejoin: round;
        stroke-width: .24px;
      }

      .cls-1, .cls-2 {
        fill: #859ae9;
      }
    </style>
  </defs>
  <path class="cls-2" d="M121.2,122.3l-3.97-3.32-2.18,4.94c-.32.72-1.4.51-1.42-.28l-.13-5.06-4.8,2.2c-.73.34-1.4-.57-.86-1.17l3.54-3.91-4.79-1.66c-.75-.26-.62-1.35.16-1.44l5.37-.59-1.96-4.79c-.29-.72.57-1.35,1.16-.85l3.97,3.32,2.18-4.94c.32-.72,1.4-.51,1.42.28l.13,5.06,4.8-2.2c.73-.34,1.4.57.86,1.17l-3.54,3.91,4.79,1.66c.75.26.62,1.35-.16,1.44l-5.37.59,1.96,4.79c.29.72-.57,1.35-1.16.85Z"/>
  <g>
    <path class="cls-1" d="M19.7,136.92v.05s-.66,0-.66.93v6.01c0,1.97-1.37,3.17-3.61,3.17-1.28,0-2.43-.49-3.31-1.29-.54-.47-.51.09-.51.09h-.05l-.16-2.62h.05c.98,2.52,2.62,3.88,4.52,3.69,1.52-.15,2.21-1.29,2.21-3.04v-6.01c0-.93-.66-.93-.66-.93v-.05h2.19Z"/>
    <path class="cls-1" d="M31.32,141.95c0,2.84-2.2,5.14-4.92,5.14s-4.92-2.3-4.92-5.14,2.2-5.14,4.92-5.14,4.92,2.3,4.92,5.14ZM30.37,141.53c-.29-2.76-2.3-4.82-4.5-4.59s-3.73,2.66-3.44,5.42c.29,2.76,2.3,4.82,4.5,4.59s3.73-2.66,3.44-5.42Z"/>
    <path class="cls-1" d="M34.71,137.9v8.09c0,.93.66.93.66.93v.05h-2.19v-.05s.66,0,.66-.93v-8.09c0-.93-.66-.93-.66-.93v-.05h2.19v.05s-.66,0-.66.93Z"/>
    <path class="cls-1" d="M45.2,136.92v.05s-.66,0-.66.93v9.08h-.11l-6.45-9.35v8.36c0,.93.66.93.66.93v.05h-1.42v-.05s.66,0,.66-.93v-8.09c0-.93-.66-.93-.66-.93v-.05h1.15l6.07,8.79v-7.81c0-.93-.66-.93-.66-.93v-.05h1.42Z"/>
    <path class="cls-1" d="M60.92,138.88h-.05s-.16-1.86-2.46-1.86h-1.09v8.97c0,.93.66.93.66.93v.05h-2.19v-.05s.66,0,.66-.93v-8.97h-1.09c-2.3,0-2.46,1.86-2.46,1.86h-.05l.11-1.97h7.87l.11,1.97Z"/>
    <path class="cls-1" d="M70.14,137.9v8.09c0,.93.66.93.66.93v.05h-2.19v-.05s.66,0,.66-.93v-4.16h-5.25v4.16c0,.93.66.93.66.93v.05h-2.19v-.05s.66,0,.66-.93v-8.09c0-.93-.66-.93-.66-.93v-.05h2.19v.05s-.66,0-.66.93v3.83h5.25v-3.83c0-.93-.66-.93-.66-.93v-.05h2.19v.05s-.66,0-.66.93Z"/>
    <path class="cls-1" d="M79.97,145.01l-.11,1.97h-7.22v-.05s.66,0,.66-.93v-8.09c0-.93-.66-.93-.66-.93v-.05h7.11l.11,1.97h-.05s-.16-1.86-2.46-1.86h-3.17v4.7h2.73c.93,0,.93-.66.93-.66h.05v1.42h-.05s0-.66-.93-.66h-2.73v5.03h3.28c2.3,0,2.46-1.86,2.46-1.86h.05Z"/>
    <path class="cls-1" d="M96.6,137.9v8.09c0,.93.66.93.66.93v.05h-2.19v-.05s.66,0,.66-.93v-8.77l-3.5,9.76h-.11l-3.5-9.07v8.09c0,.93.66.93.66.93v.05h-1.42v-.05s.66,0,.66-.93v-8.09c0-.18-.02-.33-.07-.45l-.03-.07c-.18-.42-.56-.42-.56-.42v-.05h1.26l3.43,8.89,3.19-8.89h1.53v.05s-.66,0-.66.93Z"/>
    <path class="cls-1" d="M108.26,146.92v.05h-2.19v-.05s.63,0,.25-.93l-.94-2.3h-4.65l-.94,2.31c-.36.91.26.91.26.91v.05h-1.42v-.05s.69-.02,1.06-.93l3.7-9.08h.11l3.7,9.08c.37.91,1.06.93,1.06.93ZM105.34,143.59l-2.28-5.6-2.28,5.6h4.56Z"/>
    <path class="cls-1" d="M117.28,137.9v8.09c0,.93.66.93.66.93v.05h-2.19v-.05s.66,0,.66-.93v-4.16h-5.25v4.16c0,.93.66.93.66.93v.05h-2.19v-.05s.66,0,.66-.93v-8.09c0-.93-.66-.93-.66-.93v-.05h2.19v.05s-.66,0-.66.93v3.83h5.25v-3.83c0-.93-.66-.93-.66-.93v-.05h2.19v.05s-.66,0-.66.93Z"/>
    <path class="cls-1" d="M127.93,136.92v.05s-.66,0-.66.93v6.01c0,1.97-1.37,3.17-3.61,3.17-1.28,0-2.43-.49-3.31-1.29-.54-.47-.51.09-.51.09h-.05l-.16-2.62h.05c.98,2.52,2.62,3.88,4.52,3.69,1.52-.15,2.21-1.29,2.21-3.04v-6.01c0-.93-.66-.93-.66-.93v-.05h2.19Z"/>
    <path class="cls-1" d="M139.55,141.95c0,2.84-2.2,5.14-4.92,5.14s-4.92-2.3-4.92-5.14,2.2-5.14,4.92-5.14,4.92,2.3,4.92,5.14ZM138.6,141.53c-.29-2.76-2.3-4.82-4.5-4.59s-3.73,2.66-3.44,5.42c.29,2.76,2.3,4.82,4.5,4.59s3.73-2.66,3.44-5.42Z"/>
    <path class="cls-1" d="M149.24,136.92v.05s-.71.03-1.24.93h0s-2.91,4.88-2.91,4.88v3.21c0,.93.66.93.66.93v.05h-2.19v-.05s.66,0,.66-.93v-2.66l-3.24-5.43c-.54-.9-1.24-.93-1.24-.93v-.05h2.19v.05s-.61.02-.07.93l3.02,5.06,3.02-5.07c.54-.91-.07-.93-.07-.93v-.05h1.42Z"/>
    <path class="cls-1" d="M165.08,144.63c0,1.48-1.04,2.46-3.83,2.46-1.59,0-2.76-.49-3.64-1.29-.54-.47-.51.09-.51.09h-.05l-.16-2.62h.05c.98,2.52,2.51,3.72,4.48,3.72,1.37,0,3.12-.6,3.12-1.97,0-3.83-7.66-1.42-7.66-5.69,0-1.53,1.31-2.52,3.83-2.52,1.53,0,2.65.49,3.53,1.29.54.47.51-.09.51-.09h.05l.16,2.62h-.05c-.98-2.52-2.46-3.72-4.43-3.72-1.2,0-3.06.66-3.06,2.08,0,3.72,7.66,1.31,7.66,5.63Z"/>
    <path class="cls-1" d="M176.94,141.95c0,2.84-2.2,5.14-4.92,5.14s-4.92-2.3-4.92-5.14,2.2-5.14,4.92-5.14,4.92,2.3,4.92,5.14ZM175.98,141.53c-.29-2.76-2.3-4.82-4.5-4.59s-3.73,2.66-3.44,5.42c.29,2.76,2.3,4.82,4.5,4.59s3.73-2.66,3.44-5.42Z"/>
    <path class="cls-1" d="M187.89,144.79c-.88,1.38-2.35,2.3-4.16,2.3-2.72,0-4.92-2.3-4.92-5.14s2.2-5.14,4.92-5.14c1.28,0,2.43.49,3.31,1.29.54.47.51-.09.51-.09h.05l.16,2.62h-.05c-.98-2.52-2.62-3.88-4.52-3.69-2.19.22-3.76,2.66-3.44,5.42.31,2.7,2.06,4.39,4.35,4.39,1.64,0,2.95-.88,3.66-1.97h.11Z"/>
    <path class="cls-1" d="M191.26,137.9v8.09c0,.93.66.93.66.93v.05h-2.19v-.05s.66,0,.66-.93v-8.09c0-.93-.66-.93-.66-.93v-.05h2.19v.05s-.66,0-.66.93Z"/>
    <path class="cls-1" d="M201.1,145.01l-.11,1.97h-7.22v-.05s.66,0,.66-.93v-8.09c0-.93-.66-.93-.66-.93v-.05h7.11l.11,1.97h-.05s-.16-1.86-2.46-1.86h-3.17v4.7h2.73c.93,0,.93-.66.93-.66h.05v1.42h-.05s0-.66-.93-.66h-2.73v5.03h3.28c2.3,0,2.46-1.86,2.46-1.86h.05Z"/>
    <path class="cls-1" d="M210.7,138.88h-.05s-.16-1.86-2.46-1.86h-1.09v8.97c0,.93.66.93.66.93v.05h-2.19v-.05s.66,0,.66-.93v-8.97h-1.09c-2.3,0-2.46,1.86-2.46,1.86h-.05l.11-1.97h7.87l.11,1.97Z"/>
    <path class="cls-1" d="M221.3,136.92v.05s-.71.03-1.24.93h0s-2.91,4.88-2.91,4.88v3.21c0,.93.66.93.66.93v.05h-2.19v-.05s.66,0,.66-.93v-2.66l-3.24-5.43c-.54-.9-1.24-.93-1.24-.93v-.05h2.19v.05s-.61.02-.07.93l3.02,5.06,3.02-5.07c.54-.91-.07-.93-.07-.93v-.05h1.42Z"/>
  </g>
  <g>
    <path class="cls-1" d="M19.7,136.92v.05s-.66,0-.66.93v6.01c0,1.97-1.37,3.17-3.61,3.17-1.28,0-2.43-.49-3.31-1.29-.54-.47-.51.09-.51.09h-.05l-.16-2.62h.05c.98,2.52,2.62,3.88,4.52,3.69,1.52-.15,2.21-1.29,2.21-3.04v-6.01c0-.93-.66-.93-.66-.93v-.05h2.19Z"/>
    <path class="cls-1" d="M31.32,141.95c0,2.84-2.2,5.14-4.92,5.14s-4.92-2.3-4.92-5.14,2.2-5.14,4.92-5.14,4.92,2.3,4.92,5.14ZM30.37,141.53c-.29-2.76-2.3-4.82-4.5-4.59s-3.73,2.66-3.44,5.42c.29,2.76,2.3,4.82,4.5,4.59s3.73-2.66,3.44-5.42Z"/>
    <path class="cls-1" d="M34.71,137.9v8.09c0,.93.66.93.66.93v.05h-2.19v-.05s.66,0,.66-.93v-8.09c0-.93-.66-.93-.66-.93v-.05h2.19v.05s-.66,0-.66.93Z"/>
    <path class="cls-1" d="M45.2,136.92v.05s-.66,0-.66.93v9.08h-.11l-6.45-9.35v8.36c0,.93.66.93.66.93v.05h-1.42v-.05s.66,0,.66-.93v-8.09c0-.93-.66-.93-.66-.93v-.05h1.15l6.07,8.79v-7.81c0-.93-.66-.93-.66-.93v-.05h1.42Z"/>
    <path class="cls-1" d="M60.92,138.88h-.05s-.16-1.86-2.46-1.86h-1.09v8.97c0,.93.66.93.66.93v.05h-2.19v-.05s.66,0,.66-.93v-8.97h-1.09c-2.3,0-2.46,1.86-2.46,1.86h-.05l.11-1.97h7.87l.11,1.97Z"/>
    <path class="cls-1" d="M70.14,137.9v8.09c0,.93.66.93.66.93v.05h-2.19v-.05s.66,0,.66-.93v-4.16h-5.25v4.16c0,.93.66.93.66.93v.05h-2.19v-.05s.66,0,.66-.93v-8.09c0-.93-.66-.93-.66-.93v-.05h2.19v.05s-.66,0-.66.93v3.83h5.25v-3.83c0-.93-.66-.93-.66-.93v-.05h2.19v.05s-.66,0-.66.93Z"/>
    <path class="cls-1" d="M79.97,145.01l-.11,1.97h-7.22v-.05s.66,0,.66-.93v-8.09c0-.93-.66-.93-.66-.93v-.05h7.11l.11,1.97h-.05s-.16-1.86-2.46-1.86h-3.17v4.7h2.73c.93,0,.93-.66.93-.66h.05v1.42h-.05s0-.66-.93-.66h-2.73v5.03h3.28c2.3,0,2.46-1.86,2.46-1.86h.05Z"/>
    <path class="cls-1" d="M96.6,137.9v8.09c0,.93.66.93.66.93v.05h-2.19v-.05s.66,0,.66-.93v-8.77l-3.5,9.76h-.11l-3.5-9.07v8.09c0,.93.66.93.66.93v.05h-1.42v-.05s.66,0,.66-.93v-8.09c0-.18-.02-.33-.07-.45l-.03-.07c-.18-.42-.56-.42-.56-.42v-.05h1.26l3.43,8.89,3.19-8.89h1.53v.05s-.66,0-.66.93Z"/>
    <path class="cls-1" d="M108.26,146.92v.05h-2.19v-.05s.63,0,.25-.93l-.94-2.3h-4.65l-.94,2.31c-.36.91.26.91.26.91v.05h-1.42v-.05s.69-.02,1.06-.93l3.7-9.08h.11l3.7,9.08c.37.91,1.06.93,1.06.93ZM105.34,143.59l-2.28-5.6-2.28,5.6h4.56Z"/>
    <path class="cls-1" d="M117.28,137.9v8.09c0,.93.66.93.66.93v.05h-2.19v-.05s.66,0,.66-.93v-4.16h-5.25v4.16c0,.93.66.93.66.93v.05h-2.19v-.05s.66,0,.66-.93v-8.09c0-.93-.66-.93-.66-.93v-.05h2.19v.05s-.66,0-.66.93v3.83h5.25v-3.83c0-.93-.66-.93-.66-.93v-.05h2.19v.05s-.66,0-.66.93Z"/>
    <path class="cls-1" d="M127.93,136.92v.05s-.66,0-.66.93v6.01c0,1.97-1.37,3.17-3.61,3.17-1.28,0-2.43-.49-3.31-1.29-.54-.47-.51.09-.51.09h-.05l-.16-2.62h.05c.98,2.52,2.62,3.88,4.52,3.69,1.52-.15,2.21-1.29,2.21-3.04v-6.01c0-.93-.66-.93-.66-.93v-.05h2.19Z"/>
    <path class="cls-1" d="M139.55,141.95c0,2.84-2.2,5.14-4.92,5.14s-4.92-2.3-4.92-5.14,2.2-5.14,4.92-5.14,4.92,2.3,4.92,5.14ZM138.6,141.53c-.29-2.76-2.3-4.82-4.5-4.59s-3.73,2.66-3.44,5.42c.29,2.76,2.3,4.82,4.5,4.59s3.73-2.66,3.44-5.42Z"/>
    <path class="cls-1" d="M149.24,136.92v.05s-.71.03-1.24.93h0s-2.91,4.88-2.91,4.88v3.21c0,.93.66.93.66.93v.05h-2.19v-.05s.66,0,.66-.93v-2.66l-3.24-5.43c-.54-.9-1.24-.93-1.24-.93v-.05h2.19v.05s-.61.02-.07.93l3.02,5.06,3.02-5.07c.54-.91-.07-.93-.07-.93v-.05h1.42Z"/>
    <path class="cls-1" d="M165.08,144.63c0,1.48-1.04,2.46-3.83,2.46-1.59,0-2.76-.49-3.64-1.29-.54-.47-.51.09-.51.09h-.05l-.16-2.62h.05c.98,2.52,2.51,3.72,4.48,3.72,1.37,0,3.12-.6,3.12-1.97,0-3.83-7.66-1.42-7.66-5.69,0-1.53,1.31-2.52,3.83-2.52,1.53,0,2.65.49,3.53,1.29.54.47.51-.09.51-.09h.05l.16,2.62h-.05c-.98-2.52-2.46-3.72-4.43-3.72-1.2,0-3.06.66-3.06,2.08,0,3.72,7.66,1.31,7.66,5.63Z"/>
    <path class="cls-1" d="M176.94,141.95c0,2.84-2.2,5.14-4.92,5.14s-4.92-2.3-4.92-5.14,2.2-5.14,4.92-5.14,4.92,2.3,4.92,5.14ZM175.98,141.53c-.29-2.76-2.3-4.82-4.5-4.59s-3.73,2.66-3.44,5.42c.29,2.76,2.3,4.82,4.5,4.59s3.73-2.66,3.44-5.42Z"/>
    <path class="cls-1" d="M187.89,144.79c-.88,1.38-2.35,2.3-4.16,2.3-2.72,0-4.92-2.3-4.92-5.14s2.2-5.14,4.92-5.14c1.28,0,2.43.49,3.31,1.29.54.47.51-.09.51-.09h.05l.16,2.62h-.05c-.98-2.52-2.62-3.88-4.52-3.69-2.19.22-3.76,2.66-3.44,5.42.31,2.7,2.06,4.39,4.35,4.39,1.64,0,2.95-.88,3.66-1.97h.11Z"/>
    <path class="cls-1" d="M191.26,137.9v8.09c0,.93.66.93.66.93v.05h-2.19v-.05s.66,0,.66-.93v-8.09c0-.93-.66-.93-.66-.93v-.05h2.19v.05s-.66,0-.66.93Z"/>
    <path class="cls-1" d="M201.1,145.01l-.11,1.97h-7.22v-.05s.66,0,.66-.93v-8.09c0-.93-.66-.93-.66-.93v-.05h7.11l.11,1.97h-.05s-.16-1.86-2.46-1.86h-3.17v4.7h2.73c.93,0,.93-.66.93-.66h.05v1.42h-.05s0-.66-.93-.66h-2.73v5.03h3.28c2.3,0,2.46-1.86,2.46-1.86h.05Z"/>
    <path class="cls-1" d="M210.7,138.88h-.05s-.16-1.86-2.46-1.86h-1.09v8.97c0,.93.66.93.66.93v.05h-2.19v-.05s.66,0,.66-.93v-8.97h-1.09c-2.3,0-2.46,1.86-2.46,1.86h-.05l.11-1.97h7.87l.11,1.97Z"/>
    <path class="cls-1" d="M221.3,136.92v.05s-.71.03-1.24.93h0s-2.91,4.88-2.91,4.88v3.21c0,.93.66.93.66.93v.05h-2.19v-.05s.66,0,.66-.93v-2.66l-3.24-5.43c-.54-.9-1.24-.93-1.24-.93v-.05h2.19v.05s-.61.02-.07.93l3.02,5.06,3.02-5.07c.54-.91-.07-.93-.07-.93v-.05h1.42Z"/>
  </g>
  <g>
    <path class="cls-2" d="M64.37,164.93c.08,0,.18,0,.29-.03.11-.02.2-.05.26-.11.1-.08.21-.25.33-.5.12-.25.25-.55.38-.89.13-.34.27-.71.41-1.1s.27-.77.39-1.13c.1-.28.21-.58.34-.91s.24-.66.35-.98c.11-.32.2-.62.28-.9.08-.27.13-.49.15-.66,0-.07-.02-.13-.07-.17s-.14-.06-.25-.06c-.22,0-.41,0-.54.01s-.25.01-.33.02-.16.02-.22.04c-.06.02-.12.04-.2.06-.06.03-.14.09-.22.19-.09.1-.17.2-.25.32-.08.11-.16.22-.22.33-.07.1-.12.18-.16.23l-.15-.07c.08-.22.17-.44.26-.66.09-.22.19-.45.28-.7h6.13c-.09.25-.17.48-.23.7-.06.21-.13.43-.2.66l-.19.07s0-.12,0-.23.01-.21.01-.33,0-.22-.02-.32c-.01-.1-.04-.16-.09-.19-.05-.02-.11-.04-.16-.06-.05-.02-.11-.03-.2-.04s-.19-.01-.31-.02-.3-.01-.51-.01c-.1,0-.2.01-.29.06s-.16.1-.21.17c-.11.17-.22.39-.33.66-.11.28-.23.57-.34.89s-.23.65-.35.98-.22.65-.32.93c-.13.36-.26.73-.41,1.12-.14.39-.27.75-.39,1.08s-.21.63-.26.89-.07.43-.02.52c.03.06.09.09.18.11.09.02.18.03.26.03l-.05.16h-2.88l.05-.16Z"/>
    <path class="cls-2" d="M69.78,165.07c.18-.54.36-1.09.54-1.64.18-.55.35-1.09.52-1.61.17-.52.32-1.01.47-1.48s.28-.88.39-1.24.2-.67.26-.91c.06-.25.09-.41.09-.48-.02-.04-.05-.07-.11-.07s-.12,0-.18,0-.14.02-.21.03c-.07.01-.13,0-.18,0l.12-.15c.13-.01.3-.03.5-.06.2-.03.4-.05.62-.08.21-.03.42-.05.63-.08s.39-.04.54-.04c-.47,1.31-.93,2.61-1.37,3.9-.45,1.29-.87,2.6-1.26,3.92h-1.38ZM71.47,163.7c.1-.19.23-.43.39-.72.16-.29.35-.61.55-.94s.43-.66.68-1c.24-.33.5-.63.76-.9.27-.26.54-.48.82-.64s.55-.24.82-.22c.41.01.72.14.92.37s.25.57.16,1.03c-.04.13-.1.31-.18.52-.09.21-.18.45-.29.71-.11.26-.22.52-.34.79-.12.27-.22.53-.32.77s-.17.46-.22.65c-.05.19-.07.33-.05.42.02.08.04.12.08.13.03,0,.06,0,.09,0,.06,0,.13-.04.2-.1.07-.06.13-.13.2-.22.07-.09.13-.18.19-.27s.11-.17.16-.25l.18.1c-.22.45-.46.77-.74.95s-.56.26-.84.25c-.12,0-.24-.03-.37-.07s-.24-.11-.32-.2c-.09-.09-.15-.21-.18-.35-.04-.15-.02-.33.04-.54.07-.26.16-.52.26-.77s.21-.5.32-.75c.11-.25.22-.5.34-.75.11-.25.21-.5.3-.75.14-.42.21-.73.2-.91,0-.18-.08-.28-.22-.29-.2,0-.41.09-.65.27s-.48.42-.72.71c-.25.29-.49.63-.74,1.01s-.48.75-.7,1.12c-.22.37-.42.73-.61,1.07s-.35.63-.47.86l.3-1.09Z"/>
    <path class="cls-2" d="M78.9,164.53c-.13.15-.26.28-.4.37s-.28.15-.41.18-.26.05-.37.05c-.37,0-.63-.1-.78-.3-.15-.2-.17-.49-.05-.86.04-.11.07-.21.11-.31l.11-.28c.04-.09.07-.19.12-.29.04-.1.08-.21.13-.34.05-.15.13-.33.22-.57.09-.23.18-.48.28-.73.09-.25.18-.49.25-.72s.11-.41.12-.56c.03-.1.04-.19.03-.27s-.04-.1-.09-.08c-.08.03-.16.08-.25.17-.08.09-.17.18-.24.29-.08.1-.14.2-.2.3-.05.09-.09.16-.11.19l-.22-.06c.11-.27.24-.5.4-.68.16-.18.32-.34.49-.46.17-.12.33-.21.49-.27.16-.05.29-.08.41-.07.22,0,.4.05.52.12.12.07.2.17.24.29.04.12.05.25.03.41-.02.16-.07.31-.14.47l-.88,2.22c-.08.19-.16.38-.22.56s-.13.35-.18.5c-.05.15-.09.28-.11.39-.03.11-.04.19-.03.23,0,.1.01.17.06.21.05.04.09.05.13.05.06,0,.13-.04.22-.12.08-.08.16-.17.24-.27.08-.1.14-.2.2-.29.05-.09.08-.15.08-.18l.18.1c-.1.24-.21.43-.34.58ZM78.66,158.52c-.1-.12-.12-.27-.06-.44.04-.17.17-.31.36-.44s.41-.19.65-.19.39.06.51.19c.11.12.15.27.1.44-.06.17-.2.32-.41.44-.21.12-.42.18-.65.18s-.4-.06-.51-.18Z"/>
    <path class="cls-2" d="M79.68,165.08l.84-2.33c.06-.19.13-.39.2-.57s.14-.37.2-.55c.14-.42.26-.76.34-1.04.09-.28.11-.49.06-.65-.02-.08-.07-.11-.14-.07-.08.04-.16.1-.26.2s-.19.22-.29.35c-.1.13-.18.26-.23.38l-.22-.05c.09-.22.21-.44.37-.65.15-.21.32-.39.51-.54.19-.15.39-.25.61-.31.22-.06.43-.05.65.04.15.06.25.17.3.32.05.15.06.34.04.55-.02.21-.07.45-.15.7-.08.26-.17.52-.28.79l-1.2,3.44h-1.36ZM81.49,163.54c.09-.15.21-.35.35-.62.14-.26.31-.55.5-.86.19-.31.4-.63.63-.96s.47-.62.72-.89c.25-.27.52-.49.79-.66.27-.17.56-.27.84-.28.16,0,.32.02.48.06.16.04.29.12.41.22.12.11.2.25.25.44.05.18.04.41-.02.68-.04.13-.1.31-.19.54s-.19.47-.3.74c-.11.27-.23.54-.35.82-.12.28-.23.55-.31.8-.09.25-.15.46-.2.65s-.04.31,0,.38c.05.09.13.11.22.07.09-.04.18-.12.27-.22s.16-.21.24-.33c.07-.12.12-.21.15-.28l.18.08c-.07.23-.18.42-.31.58-.13.16-.29.29-.45.39-.17.1-.34.17-.53.2s-.36.03-.52,0c-.13-.03-.24-.07-.33-.14-.09-.06-.17-.15-.23-.26s-.09-.25-.09-.42c0-.17.03-.37.12-.6.1-.24.19-.47.28-.69.09-.21.18-.43.28-.64.1-.21.2-.42.29-.64.09-.22.19-.45.29-.7.16-.42.24-.74.24-.96s-.11-.32-.3-.29c-.2.03-.41.14-.64.34-.23.2-.47.44-.71.74-.24.29-.48.62-.72.98s-.46.72-.66,1.08-.4.7-.57,1.02c-.18.32-.32.59-.44.8l.35-1.19Z"/>
    <path class="cls-2" d="M86.15,165.09c.25-.65.5-1.31.74-1.98s.47-1.32.68-1.95c.21-.64.41-1.24.59-1.8.18-.57.34-1.08.47-1.54,0-.06,0-.11-.02-.15-.01-.04-.05-.06-.11-.06-.07,0-.13,0-.18.02-.05.01-.11.02-.18.02,0,0-.04,0-.09,0-.05,0-.08,0-.1,0l.13-.16c.15,0,.33-.02.53-.05.2-.03.4-.06.61-.08.21-.03.41-.05.62-.07.2-.02.38-.03.55-.03l-1.72,4.7-1.08,3.15h-1.43ZM88.81,161.27c.16-.2.36-.42.59-.66s.49-.46.77-.67c.28-.21.58-.38.89-.53s.64-.22.99-.22c.3,0,.54.06.72.21s.29.35.3.59c0,.38-.08.7-.28.98-.19.28-.44.52-.74.72-.3.2-.62.36-.97.48-.34.12-.65.22-.92.29.03.11.11.29.24.54.14.25.29.5.47.75.17.25.36.48.55.67.19.19.38.29.55.29.05,0,.12-.01.18-.04s.13-.06.2-.09c.07-.04.14-.08.21-.13.07-.05.14-.11.2-.16l.08.17c-.22.27-.52.47-.87.58s-.72.15-1.1.09c-.28-.04-.53-.16-.74-.36-.22-.2-.41-.42-.58-.67-.17-.25-.32-.51-.46-.77-.13-.26-.27-.48-.39-.66l.15-.25c.3-.01.58-.06.85-.15s.52-.2.76-.34c.24-.15.45-.32.63-.51s.33-.41.44-.66c.04-.09.08-.2.12-.33.04-.13.06-.25.07-.37s-.01-.22-.05-.29c-.04-.08-.12-.11-.25-.11-.3.02-.59.13-.88.32-.29.19-.57.42-.84.68s-.51.55-.74.85c-.23.3-.43.57-.59.81l.43-1.04Z"/>
    <path class="cls-2" d="M93.41,164.92c-.1-.12-.13-.27-.07-.45.05-.17.18-.31.37-.43.19-.12.41-.18.65-.18s.41.06.53.18c.12.12.14.27.08.43-.06.17-.2.32-.4.45-.2.12-.42.19-.64.19s-.4-.06-.51-.19Z"/>
    <path class="cls-2" d="M97.69,164.93c.15,0,.28-.02.38-.05.1-.02.17-.05.22-.09.09-.08.18-.2.28-.36.09-.17.19-.37.28-.6s.19-.5.3-.8c.1-.3.22-.61.34-.95.49-1.37.84-2.43,1.07-3.18.23-.75.33-1.19.29-1.31-.02-.07-.07-.12-.16-.15-.09-.03-.22-.04-.39-.03l.04-.16h2.84c1.04,0,1.77.18,2.17.52.4.34.5.87.29,1.6-.11.37-.28.69-.5.97-.23.28-.5.51-.81.69-.32.18-.67.32-1.06.41s-.8.14-1.24.15h-1.12s.08-.19.08-.19h.66c.58-.02,1.07-.22,1.47-.59.41-.37.72-.88.95-1.53.13-.35.19-.65.19-.89s-.05-.42-.15-.57c-.1-.14-.24-.24-.41-.3-.18-.06-.37-.09-.59-.09h-.2c-.09,0-.17.03-.23.07-.06.04-.11.09-.13.15l-1.62,4.46c-.13.34-.24.65-.35.94-.11.29-.2.55-.28.78-.08.23-.13.42-.16.59-.03.16-.02.29.03.37,0,.02.05.04.12.06.07.02.15.03.25.04.1,0,.2.02.29.03s.18.01.25.01l-.07.16h-3.36l.05-.16Z"/>
    <path class="cls-2" d="M106.85,164.51c-.13.15-.26.27-.4.36s-.28.15-.42.19c-.14.04-.26.06-.37.06-.1,0-.21-.01-.34-.04-.13-.02-.25-.08-.36-.16-.11-.08-.18-.2-.22-.37-.04-.17-.03-.39.05-.67.04-.16.12-.41.24-.75.12-.34.26-.72.43-1.15s.33-.88.49-1.34c.17-.46.32-.9.46-1.31s.25-.76.33-1.05c.08-.29.11-.49.09-.58-.03-.04-.07-.07-.12-.07-.05,0-.11,0-.18,0-.07,0-.14.02-.21.03-.07.01-.13,0-.19,0l.09-.15c.14-.01.32-.03.51-.06.2-.03.4-.05.61-.08.21-.03.42-.05.63-.08.21-.02.39-.04.54-.04l-1.95,5.63c-.14.38-.27.71-.38,1-.11.29-.14.51-.11.66,0,.07.03.11.07.13.04.01.07.02.1.02.06,0,.13-.04.22-.1s.16-.15.22-.24c.07-.09.13-.18.18-.28.05-.1.09-.18.12-.24l.15.12c-.08.23-.18.42-.31.57Z"/>
    <path class="cls-2" d="M108.16,164.86c-.2-.16-.34-.38-.43-.66s-.11-.59-.08-.96c.03-.37.13-.75.29-1.15.19-.49.43-.91.74-1.28.3-.36.63-.67,1-.91.37-.24.76-.42,1.18-.54s.84-.18,1.26-.18c.12,0,.29,0,.51.02.23.02.46.05.7.09.24.05.46.11.66.18.19.08.31.18.36.3l-.63,1.68c-.12.3-.23.59-.33.89-.1.29-.2.58-.29.85-.12.32-.2.59-.26.81s-.08.4-.06.52c0,.09.04.14.08.15.04.01.08.02.09.02.06,0,.14-.04.22-.12.08-.08.16-.17.24-.27.07-.1.13-.19.18-.29.05-.09.08-.15.09-.18l.18.08c-.07.24-.17.43-.29.58-.12.15-.25.27-.39.36-.13.09-.27.15-.41.19-.13.04-.26.05-.36.05-.47.04-.77-.07-.92-.33-.14-.25-.13-.6.03-1.05l1.01-2.77s.03-.07.05-.11c.01-.04.03-.07.05-.11.12-.32.21-.58.28-.77.07-.19.06-.34-.03-.44-.05-.06-.14-.1-.26-.12-.12-.01-.26-.02-.42-.03-.38,0-.71.08-1,.23-.29.15-.54.36-.76.62s-.41.56-.57.89-.32.67-.47,1.01c-.12.29-.22.59-.31.9-.09.31-.15.59-.18.85-.03.26-.02.47.03.64.05.17.17.26.34.27.23.01.49-.11.79-.38.3-.26.61-.62.93-1.06s.65-.95.99-1.53c.34-.57.66-1.17.97-1.78l-.19.81c-.1.17-.22.39-.36.67s-.3.58-.47.9c-.18.32-.37.64-.59.96s-.45.61-.7.87c-.25.25-.52.46-.8.62-.28.16-.59.24-.91.23-.31,0-.56-.09-.76-.25Z"/>
    <path class="cls-2" d="M112.89,166.94c-.13-.11-.21-.24-.25-.38-.04-.14-.04-.27.01-.39s.15-.19.3-.21c.18.02.34.06.49.13.14.07.29.11.43.13.15.03.3.04.43.05.13,0,.28-.02.43-.07.15-.05.32-.14.49-.27.17-.13.38-.32.62-.59l1.16-.93c.13-.14.3-.31.51-.53.2-.21.41-.44.63-.68.22-.24.43-.5.63-.76.2-.26.37-.52.5-.78.13-.26.21-.5.24-.73.03-.23-.01-.43-.13-.6-.1-.04-.18-.07-.26-.11-.06-.04-.12-.08-.18-.14-.05-.06-.08-.13-.07-.21,0-.1.04-.18.1-.25s.13-.12.21-.17.17-.07.26-.09c.09-.02.17-.03.24-.03.05,0,.12,0,.19.02.07.01.14.04.21.07s.13.08.2.14c.06.06.11.15.15.26.05.19.02.44-.09.75-.12.31-.3.66-.55,1.04-.25.38-.54.78-.88,1.2-.34.42-.71.84-1.11,1.25-.4.41-.81.8-1.23,1.17-.42.37-.83.7-1.22.98s-.76.51-1.09.67c-.34.17-.62.25-.86.24-.22,0-.39-.07-.51-.18ZM115.8,165.44c.05-.12.1-.31.14-.56.04-.26.06-.55.07-.88,0-.33,0-.67,0-1.04s-.04-.72-.08-1.06c-.04-.34-.1-.64-.17-.92-.07-.28-.16-.49-.26-.63-.1-.14-.21-.2-.34-.18-.13.02-.27.16-.42.42l-.19-.18c.12-.16.25-.33.41-.5.16-.17.32-.31.5-.42s.36-.17.55-.19.37.06.54.21c.14.12.25.31.34.58.09.27.18.58.24.92.07.34.12.7.15,1.07.03.38.05.72.05,1.04,0,.32,0,.59-.03.82s-.07.37-.12.43l-1.37,1.06Z"/>
    <path class="cls-2" d="M118.88,164.92c-.1-.12-.13-.27-.07-.45.05-.17.18-.31.37-.43.19-.12.41-.18.65-.18s.41.06.53.18c.12.12.14.27.08.43-.06.17-.2.32-.4.45-.2.12-.42.19-.64.19s-.4-.06-.51-.19Z"/>
    <path class="cls-2" d="M126.13,157.47c-.1-.02-.19-.03-.27-.03l.07-.2h2.15l.38,5.88-.03.11,4.61-5.99h2.32l-.08.2c-.08,0-.18,0-.29.03s-.21.05-.28.11c-.11.09-.23.27-.37.54s-.27.58-.41.94c-.14.36-.28.73-.41,1.12-.13.39-.27.76-.39,1.09-.13.36-.28.73-.43,1.1-.15.37-.28.72-.38,1.04-.11.32-.19.6-.25.84-.06.24-.07.4-.02.49.03.06.09.09.2.11s.2.03.28.03l-.08.2h-2.85l.07-.2c.08,0,.18,0,.3-.03s.21-.05.27-.11c.11-.08.22-.24.34-.48.12-.24.25-.52.38-.84.13-.33.26-.68.4-1.06.13-.38.27-.75.41-1.1.1-.28.21-.58.34-.9s.24-.64.35-.95c.11-.31.2-.6.29-.88.09-.27.14-.49.16-.67l.07-.03-5.34,6.99-.54.24-.42-6.95h.05l-1.12,3.07c-.14.36-.28.73-.43,1.12s-.28.74-.4,1.08c-.12.34-.21.63-.26.87s-.07.41-.02.5c.03.06.09.09.19.11.1.02.19.03.27.03l-.07.2h-1.86l.08-.2c.08,0,.18,0,.29-.03.11-.02.2-.05.28-.11.11-.08.22-.25.34-.5s.25-.54.38-.88c.14-.33.27-.69.41-1.08.14-.39.28-.76.41-1.11.12-.33.25-.68.4-1.06s.28-.75.41-1.09c.12-.35.21-.65.28-.92.06-.26.07-.44.03-.52-.03-.06-.09-.09-.19-.11Z"/>
    <path class="cls-2" d="M134.04,164.86c-.2-.16-.34-.38-.43-.66s-.11-.59-.08-.96c.03-.37.13-.75.29-1.15.19-.49.43-.91.74-1.28.3-.36.63-.67,1-.91.37-.24.76-.42,1.18-.54s.84-.18,1.26-.18c.12,0,.29,0,.51.02.23.02.46.05.7.09.24.05.46.11.66.18.19.08.31.18.36.3l-.63,1.68c-.12.3-.23.59-.33.89-.1.29-.2.58-.29.85-.12.32-.2.59-.26.81s-.08.4-.06.52c0,.09.04.14.08.15.04.01.08.02.09.02.06,0,.14-.04.22-.12.08-.08.16-.17.24-.27.07-.1.13-.19.18-.29.05-.09.08-.15.09-.18l.18.08c-.07.24-.17.43-.29.58-.12.15-.25.27-.39.36-.13.09-.27.15-.41.19-.13.04-.26.05-.36.05-.47.04-.77-.07-.92-.33-.14-.25-.13-.6.03-1.05l1.01-2.77s.03-.07.05-.11c.01-.04.03-.07.05-.11.12-.32.21-.58.28-.77.07-.19.06-.34-.03-.44-.05-.06-.14-.1-.26-.12-.12-.01-.26-.02-.42-.03-.38,0-.71.08-1,.23-.29.15-.54.36-.76.62s-.41.56-.57.89-.32.67-.47,1.01c-.12.29-.22.59-.31.9-.09.31-.15.59-.18.85-.03.26-.02.47.03.64.05.17.17.26.34.27.23.01.49-.11.79-.38.3-.26.61-.62.93-1.06s.65-.95.99-1.53c.34-.57.66-1.17.97-1.78l-.19.81c-.1.17-.22.39-.36.67s-.3.58-.47.9c-.18.32-.37.64-.59.96s-.45.61-.7.87c-.25.25-.52.46-.8.62-.28.16-.59.24-.91.23-.31,0-.56-.09-.76-.25Z"/>
    <path class="cls-2" d="M140.04,165.07c.18-.54.36-1.09.54-1.64.18-.55.35-1.09.52-1.61.17-.52.32-1.01.47-1.48s.28-.88.39-1.24.2-.67.26-.91c.06-.25.09-.41.09-.48-.02-.04-.05-.07-.11-.07s-.12,0-.18,0-.14.02-.21.03c-.07.01-.13,0-.18,0l.12-.15c.13-.01.3-.03.5-.06.2-.03.4-.05.62-.08.21-.03.42-.05.63-.08s.39-.04.54-.04c-.47,1.31-.93,2.61-1.37,3.9-.45,1.29-.87,2.6-1.26,3.92h-1.38ZM141.73,163.7c.1-.19.23-.43.39-.72.16-.29.35-.61.55-.94s.43-.66.68-1c.24-.33.5-.63.76-.9.27-.26.54-.48.82-.64s.55-.24.82-.22c.41.01.72.14.92.37s.25.57.16,1.03c-.04.13-.1.31-.18.52-.09.21-.18.45-.29.71-.11.26-.22.52-.34.79-.12.27-.22.53-.32.77s-.17.46-.22.65c-.05.19-.07.33-.05.42.02.08.04.12.08.13.03,0,.06,0,.09,0,.06,0,.13-.04.2-.1.07-.06.13-.13.2-.22.07-.09.13-.18.19-.27s.11-.17.16-.25l.18.1c-.22.45-.46.77-.74.95s-.56.26-.84.25c-.12,0-.24-.03-.37-.07s-.24-.11-.32-.2c-.09-.09-.15-.21-.18-.35-.04-.15-.02-.33.04-.54.07-.26.16-.52.26-.77s.21-.5.32-.75c.11-.25.22-.5.34-.75.11-.25.21-.5.3-.75.14-.42.21-.73.2-.91,0-.18-.08-.28-.22-.29-.2,0-.41.09-.65.27s-.48.42-.72.71c-.25.29-.49.63-.74,1.01s-.48.75-.7,1.12c-.22.37-.42.73-.61,1.07s-.35.63-.47.86l.3-1.09Z"/>
    <path class="cls-2" d="M144.74,167.12c-.17-.02-.32-.05-.46-.1-.13-.05-.25-.11-.34-.18s-.16-.16-.2-.25c-.03-.09-.02-.19.01-.3.04-.11.1-.21.2-.3.09-.09.21-.16.34-.21.13-.05.29-.05.47,0,.09.03.14.07.16.14.01.07.01.14,0,.22s-.03.17-.05.26c-.02.09-.02.17-.01.25s.05.15.12.2c.07.05.2.08.38.09.22-.04.43-.16.62-.37.19-.21.35-.45.49-.72s.26-.55.36-.83c.1-.28.18-.51.24-.67l.7-2.02c.1-.28.19-.54.28-.79.08-.25.16-.47.22-.68.06-.21.11-.38.14-.54.03-.15.03-.28,0-.38-.02-.04-.06-.06-.12-.07-.06,0-.12,0-.19.01-.07,0-.14.02-.2.04s-.13.01-.18,0l.12-.27c.13-.01.3-.04.51-.06.2-.03.41-.06.62-.08.21-.03.42-.05.63-.08.21-.02.38-.04.53-.04l-1.5,4.29c-.13.36-.27.74-.44,1.13-.17.39-.38.75-.63,1.08-.25.33-.56.61-.94.84-.37.23-.83.36-1.37.4-.18,0-.36,0-.53-.02ZM149.02,158.52c-.1-.12-.12-.27-.06-.44.05-.17.17-.31.36-.44s.41-.19.65-.19c.23,0,.4.06.51.19s.15.27.09.44c-.06.17-.2.32-.4.44-.2.12-.42.18-.64.18-.24,0-.42-.06-.52-.18Z"/>
    <path class="cls-2" d="M155.09,159.37c.3.13.53.33.69.58s.25.57.26.94c.01.37-.07.8-.24,1.28-.16.47-.38.9-.65,1.28-.28.38-.59.7-.93.96-.35.26-.72.47-1.11.6-.39.14-.79.21-1.18.21s-.75-.07-1.04-.21-.51-.34-.66-.6c-.15-.26-.23-.58-.24-.96s.07-.8.23-1.28.38-.89.65-1.27c.27-.37.58-.69.92-.94.34-.26.7-.45,1.09-.59.38-.14.78-.2,1.18-.2s.74.07,1.04.2ZM154.63,161.13c.09-.33.13-.63.13-.9,0-.26-.06-.47-.18-.63-.11-.16-.31-.23-.6-.23s-.53.08-.76.24-.44.37-.62.64-.35.56-.49.9c-.14.33-.28.68-.41,1.03-.13.36-.23.71-.32,1.05-.09.34-.14.64-.14.91,0,.27.05.48.16.65.11.16.31.25.59.25s.55-.08.78-.25c.23-.17.44-.38.63-.65s.36-.57.51-.91c.15-.34.29-.69.42-1.04.12-.36.22-.71.31-1.04Z"/>
    <path class="cls-2" d="M156.01,165.08l.84-2.33c.06-.19.13-.39.2-.57s.14-.37.2-.55c.14-.42.26-.76.34-1.04.09-.28.11-.49.06-.65-.02-.08-.07-.11-.14-.07-.08.04-.16.1-.26.2s-.19.22-.29.35c-.1.13-.18.26-.23.38l-.22-.05c.09-.22.21-.44.37-.65.15-.21.32-.39.51-.54.19-.15.39-.25.61-.31.22-.06.43-.05.65.04.15.06.25.17.3.32.05.15.06.34.04.55-.02.21-.07.45-.15.7-.08.26-.17.52-.28.79l-1.2,3.44h-1.36ZM157.82,163.54c.09-.15.21-.35.35-.62.14-.26.31-.55.5-.86.19-.31.4-.63.63-.96s.47-.62.72-.89c.25-.27.52-.49.79-.66.27-.17.56-.27.84-.28.16,0,.32.02.48.06.16.04.29.12.41.22.12.11.2.25.25.44.05.18.04.41-.02.68-.04.13-.1.31-.19.54s-.19.47-.3.74c-.11.27-.23.54-.35.82-.12.28-.23.55-.31.8-.09.25-.15.46-.2.65s-.04.31,0,.38c.05.09.13.11.22.07.09-.04.18-.12.27-.22s.16-.21.24-.33c.07-.12.12-.21.15-.28l.18.08c-.07.23-.18.42-.31.58-.13.16-.29.29-.45.39-.17.1-.34.17-.53.2s-.36.03-.52,0c-.13-.03-.24-.07-.33-.14-.09-.06-.17-.15-.23-.26s-.09-.25-.09-.42c0-.17.03-.37.12-.6.1-.24.19-.47.28-.69.09-.21.18-.43.28-.64.1-.21.2-.42.29-.64.09-.22.19-.45.29-.7.16-.42.24-.74.24-.96s-.11-.32-.3-.29c-.2.03-.41.14-.64.34-.23.2-.47.44-.71.74-.24.29-.48.62-.72.98s-.46.72-.66,1.08-.4.7-.57,1.02c-.18.32-.32.59-.44.8l.35-1.19Z"/>
    <path class="cls-2" d="M163.27,167c-.29-.08-.53-.19-.7-.33-.18-.14-.3-.3-.36-.5-.06-.19-.05-.4.04-.62,0,.02,0,.02.02,0,.01-.03.03-.07.06-.12.03-.05.07-.1.13-.15.06-.05.14-.09.23-.12.11-.01.22-.01.33,0,.11.02.21.05.3.1.09.05.15.11.2.18.04.07.06.15.04.23-.07.19-.11.37-.13.53s.02.29.1.41.21.19.39.25c.18.06.43.08.74.07.38,0,.72-.06,1.03-.17s.56-.24.76-.4c.19-.16.32-.34.38-.55.06-.21.04-.41-.07-.62-.06-.12-.21-.19-.45-.21-.23-.02-.5-.03-.8-.02-.3.01-.6.02-.91.04-.31.02-.56.01-.76-.02-.19-.01-.36-.06-.5-.12-.14-.07-.26-.16-.35-.26s-.14-.21-.16-.34.02-.27.1-.42c.12-.24.33-.43.64-.58s.68-.22,1.1-.22l.78.12c-.51.03-.93.08-1.26.17s-.53.2-.6.33c-.02.06.02.11.1.16.09.05.21.07.37.07.14,0,.31-.01.51-.02.19,0,.4-.01.61-.02.21,0,.43-.02.64-.02.22,0,.42,0,.61,0s.38.02.56.06.33.1.47.17c.14.08.25.17.34.28.09.11.13.24.14.39.03.31-.04.62-.22.92s-.42.56-.75.79-.73.41-1.2.54c-.47.13-.99.19-1.55.17-.37-.01-.7-.06-.99-.15ZM164,160.46c.23-.26.5-.48.82-.67s.67-.34,1.05-.45.79-.17,1.2-.17c.38,0,.72.06,1.02.17s.55.26.74.45c.19.19.32.42.38.67.06.26.05.53-.04.82-.1.28-.26.54-.49.79-.23.25-.5.46-.82.64-.32.18-.67.32-1.05.42s-.77.15-1.17.14c-.42,0-.78-.06-1.09-.16-.31-.1-.56-.23-.75-.41-.19-.17-.31-.38-.37-.62-.06-.24-.04-.51.06-.81.1-.29.26-.57.49-.82ZM164.85,161.9c-.02.22-.01.41.03.58.04.17.13.31.26.42s.32.17.57.17.47-.06.68-.17c.21-.11.4-.25.57-.43.17-.17.32-.37.44-.58.12-.21.22-.42.29-.62.08-.21.13-.42.16-.65.03-.23.02-.43-.03-.61-.04-.18-.13-.33-.26-.45-.13-.12-.32-.18-.56-.18s-.47.06-.68.18c-.21.12-.4.27-.57.45-.17.18-.32.39-.45.61-.13.23-.23.44-.31.65-.07.2-.12.41-.14.62ZM168.64,159.8s.03-.07.07-.1c.04-.03.08-.07.12-.11s.09-.07.13-.11c.04-.03.08-.07.09-.09.05-.06.07-.13.03-.19-.03-.07-.07-.14-.13-.21-.05-.07-.11-.16-.18-.25-.06-.09-.1-.2-.11-.32.02-.08.06-.16.13-.22s.14-.12.23-.16c.09-.04.17-.07.26-.09s.17-.03.24-.03c.16,0,.28.04.35.1.07.07.12.16.15.27.03.18-.02.37-.13.57-.11.2-.27.39-.48.57-.09.08-.2.18-.34.29-.14.11-.26.19-.38.25l-.08-.19Z"/>
  </g>
</svg>