<svg width="391" height="391" viewBox="0 0 391 391" fill="none" xmlns="http://www.w3.org/2000/svg">
<path d="M197.279 365.158V376.822H195.183L193.727 367.462H193.679L192.207 376.822H190.095V365.158H191.247V370.502L191.199 375.638H191.311L193.023 365.158H194.335L196.079 375.638H196.175L196.127 370.502V365.158H197.279Z" fill="#EE003C"/>
<path d="M181.954 364.22L178.522 375.616L176.929 375.468L175.629 363.633L176.776 363.739L177.067 366.675L179.967 366.944L180.791 364.112L181.954 364.22ZM179.722 367.853L177.141 367.614L177.578 372.105L177.784 374.39L177.848 374.396L178.471 372.172L179.722 367.853Z" fill="#EE003C"/>
<path d="M164.386 361.718C166.43 362.101 166.894 363.718 166.509 365.957L165.423 365.754C165.814 363.662 165.279 362.862 164.273 362.673C163.188 362.47 162.613 363.193 162.396 364.357C162.123 365.819 162.784 366.464 163.784 367.302C164.744 368.085 165.732 368.986 165.333 371.125C164.975 373.044 163.801 373.752 162.323 373.475C160.467 373.127 159.957 371.762 160.334 369.651L161.419 369.855C161.064 371.758 161.571 372.357 162.499 372.531C163.458 372.711 163.971 372.058 164.176 370.957C164.464 369.416 163.724 368.756 162.82 368.017C161.751 367.117 160.848 366.199 161.224 364.186C161.596 362.188 162.798 361.42 164.386 361.718Z" fill="#EE003C"/>
<path d="M149.193 358.135C151.194 358.705 151.506 360.358 150.916 362.553L149.855 362.25C150.436 360.203 149.978 359.357 148.993 359.076C147.931 358.774 147.293 359.44 146.969 360.579C146.563 362.01 147.162 362.714 148.079 363.641C148.964 364.508 149.864 365.497 149.27 367.59C148.737 369.468 147.503 370.065 146.056 369.652C144.241 369.135 143.858 367.728 144.429 365.661L145.49 365.964C144.961 367.826 145.411 368.47 146.319 368.729C147.257 368.997 147.827 368.394 148.133 367.316C148.562 365.808 147.886 365.083 147.054 364.264C146.073 363.268 145.258 362.271 145.818 360.301C146.373 358.346 147.639 357.692 149.193 358.135Z" fill="#EE003C"/>
<path d="M134.967 353.538L130.761 364.417L129.627 363.977L133.833 353.098L134.967 353.538Z" fill="#EE003C"/>
<path d="M119.84 346.863L116.768 358.366L115.751 357.858L117.937 349.973L118.654 347.595L118.568 347.552L117.135 349.537L112.129 356.051L111.113 355.544L118.422 346.156L119.84 346.863Z" fill="#EE003C"/>
<path d="M108.419 340.596L102.288 350.518L98.6987 348.291L99.2454 347.407L101.842 349.018L104.02 345.493L101.777 344.101L102.299 343.257L104.542 344.649L106.88 340.865L104.283 339.254L104.83 338.369L108.419 340.596Z" fill="#EE003C"/>
<path d="M83.4056 322.225L75.5564 330.853L73.8908 329.332C72.3787 327.95 72.6098 326.341 74.0957 324.708C75.5815 323.075 77.1485 322.707 78.6606 324.089L79.4521 324.812L82.5315 321.427L83.4056 322.225ZM74.6261 328.595L75.3821 329.285L78.763 325.569L78.007 324.878C77.1564 324.101 76.1768 324.203 74.9709 325.529C73.7434 326.878 73.7992 327.839 74.6261 328.595Z" fill="#EE003C"/>
<path d="M72.1766 311.299L63.5648 319.166L61.9174 317.355C60.6685 315.982 60.643 314.575 62.3086 313.054C63.3246 312.126 64.4036 311.79 65.2568 312.181L65.3394 312.106C64.9536 311.396 65.2612 310.617 66.3008 309.667L67.8365 308.264C68.1318 307.995 68.3927 307.734 68.6235 307.394L69.4094 308.258C69.2239 308.601 68.9167 308.881 68.6214 309.151L67.133 310.511C66.1288 311.428 66.0662 312.048 66.5507 312.581L67.6705 313.812L71.3798 310.423L72.1766 311.299ZM66.9499 314.47L66.0993 313.535C65.2595 312.612 64.2384 312.916 63.2225 313.844C62.1829 314.794 61.8132 315.695 62.7391 316.713L63.5359 317.589L66.9499 314.47Z" fill="#EE003C"/>
<path d="M61.9241 299.273L52.6229 306.311L50.0807 302.938L50.91 302.31L52.7493 304.751L56.0538 302.25L54.4649 300.142L55.256 299.543L56.8449 301.651L60.3918 298.967L58.5525 296.527L59.3819 295.899L61.9241 299.273Z" fill="#EE003C"/>
<path d="M52.8554 286.375L42.9441 292.525L41.8424 290.742L49.0305 284.568L49.0053 284.528L40.278 288.21L39.1678 286.413L49.0791 280.264L49.6847 281.244L45.1437 284.061L40.7542 286.728L40.8131 286.824L50.6182 282.755L51.3079 283.871L43.3194 290.88L43.3699 290.961L47.7089 288.213L52.2499 285.395L52.8554 286.375Z" fill="#EE003C"/>
<path d="M44.3827 271.398L33.9457 276.606L33.4046 275.517L43.8415 270.309L44.3827 271.398Z" fill="#EE003C"/>
<path d="M38.1215 256.921C38.8312 258.757 37.8177 260.128 35.5654 261.003L28.1375 263.886L27.7163 262.797L35.1293 259.919C37.0833 259.16 37.4616 258.276 37.0924 257.32C36.7058 256.321 35.8038 255.984 33.8946 256.725L26.4816 259.603L26.0604 258.514L33.4884 255.63C35.8152 254.727 37.4523 255.19 38.1215 256.921Z" fill="#EE003C"/>
<path d="M33.4308 243.795L22.2138 246.993L21.6413 244.977L30.2449 241.01L30.2318 240.964L20.8284 242.114L20.2515 240.082L31.4685 236.884L31.7832 237.993L26.644 239.458L21.6917 240.82L21.7223 240.928L32.2683 239.701L32.6267 240.963L23.0247 245.514L23.0509 245.607L27.9769 244.152L33.1162 242.687L33.4308 243.795Z" fill="#EE003C"/>
<path d="M27.162 211.677L16.5994 212.658L16.7865 214.681L15.7351 214.779L15.2489 209.521L16.3003 209.424L16.4889 211.463L27.0515 210.482L27.162 211.677Z" fill="#EE003C"/>
<path d="M25.9941 197.409H14.3301V193.185H15.3701V196.241H19.5141V193.601H20.5061V196.241H24.9541V193.185H25.9941V197.409Z" fill="#EE003C"/>
<path d="M26.8858 181.877L15.2717 180.799L15.4647 178.712L24.9187 178.127L24.9231 178.08L15.7388 175.748L15.9332 173.645L27.5473 174.724L27.4412 175.871L22.1201 175.377L17.0105 174.854L17.0002 174.966L27.2777 177.639L27.1569 178.946L16.5612 179.713L16.5523 179.809L21.6707 180.236L26.9918 180.73L26.8858 181.877Z" fill="#EE003C"/>
<path d="M28.9247 165.888L17.4601 163.74L17.8738 161.522C18.2494 159.509 19.7376 158.86 21.9079 159.267C24.0781 159.673 25.2162 160.814 24.8406 162.827L24.644 163.881L29.1418 164.724L28.9247 165.888ZM18.8872 161.761L18.6994 162.768L23.6375 163.693L23.8253 162.686C24.0366 161.554 23.4335 160.773 21.6721 160.443C19.8793 160.107 19.0926 160.66 18.8872 161.761Z" fill="#EE003C"/>
<path d="M32.3894 150.442L21.1724 147.244L21.4914 146.121L31.6775 149.025L32.3505 146.655L33.3814 146.949L32.3894 150.442Z" fill="#EE003C"/>
<path d="M37.0119 136.072L26.9924 129.642L27.5693 128.15L39.3025 130.147L38.8871 131.222L35.9854 130.696L34.9353 133.412L37.4331 134.983L37.0119 136.072ZM34.1279 132.927L35.0626 130.51L30.6252 129.697L28.3721 129.268L28.349 129.328L30.317 130.538L34.1279 132.927Z" fill="#EE003C"/>
<path d="M44.1259 119.685L34.6339 114.948L33.7296 116.768L32.7847 116.297L35.1343 111.568L36.0792 112.04L35.1679 113.874L44.6599 118.61L44.1259 119.685Z" fill="#EE003C"/>
<path d="M50.4399 108.102L40.5286 101.952L42.749 98.359L43.6327 98.9073L42.0263 101.507L45.5476 103.692L46.9354 101.446L47.7783 101.969L46.3906 104.215L50.1702 106.56L51.7766 103.96L52.6603 104.508L50.4399 108.102Z" fill="#EE003C"/>
<path d="M334.982 306.773L335.126 302.982L331.764 305.015L330.896 303.568L334.439 301.809L330.896 300.051L331.764 298.604L335.126 300.637L334.982 296.846H336.717L336.573 300.637L339.935 298.604L340.803 300.051L337.26 301.809L340.803 303.568L339.935 305.015L336.573 302.982L336.717 306.773H334.982Z" fill="#EE003C"/>
<path d="M64.5233 82.4034L64.6679 78.6116L61.3052 80.6454L60.4374 79.1976L63.9809 77.4396L60.4374 75.6816L61.3052 74.2339L64.6679 76.2676L64.5233 72.4758H66.2589L66.1142 76.2676L69.4769 74.2339L70.3447 75.6816L66.8012 77.4396L70.3447 79.1976L69.4769 80.6454L66.1142 78.6116L66.2589 82.4034H64.5233Z" fill="#EE003C"/>
<path d="M195.299 23.8309L195.444 20.0391L192.081 22.0729L191.213 20.6251L194.757 18.8671L191.213 17.1091L192.081 15.6613L195.444 17.6951L195.299 13.9033H197.035L196.89 17.6951L200.253 15.6613L201.121 17.1091L197.577 18.8671L201.121 20.6251L200.253 22.0729L196.89 20.0391L197.035 23.8309H195.299Z" fill="#EE003C"/>
<path d="M344.908 109.222L345.052 105.431L341.69 107.464L340.822 106.017L344.365 104.259L340.822 102.501L341.69 101.053L345.052 103.087L344.908 99.2949H346.643L346.499 103.087L349.861 101.053L350.729 102.501L347.185 104.259L350.729 106.017L349.861 107.464L346.499 105.431L346.643 109.222H344.908Z" fill="#EE003C"/>
<path d="M90.962 62.0077L83.9421 52.6927L85.5114 51.5052C87.5783 49.9411 89.7139 50.9937 91.9383 53.9454C94.0087 56.6926 94.8024 59.1016 92.5314 60.8202L90.962 62.0077ZM91.2803 60.4627L92.033 59.8931C93.1941 59.0145 93.1192 57.5061 90.9718 54.6567C88.7859 51.7561 87.4004 51.3799 86.2649 52.2392L85.5121 52.8088L91.2803 60.4627Z" fill="#EE003C"/>
<path d="M104.407 52.4607L98.2761 42.5381L101.865 40.3112L102.412 41.1959L99.8153 42.8071L101.994 46.3324L104.237 44.9405L104.758 45.7844L102.515 47.1763L104.853 50.9602L107.45 49.349L107.997 50.2337L104.407 52.4607Z" fill="#EE003C"/>
<path d="M120.12 43.7255C118.259 44.6541 116.917 43.643 115.877 41.6226L116.865 41.1297C117.812 43.0354 118.719 43.3515 119.635 42.8943C120.623 42.4014 120.647 41.4778 120.12 40.4175C119.458 39.0849 118.543 38.9693 117.241 38.9034C116.004 38.859 114.675 38.7357 113.706 36.7871C112.838 35.039 113.348 33.7651 114.694 33.0936C116.383 32.2507 117.611 33.0325 118.58 34.9454L117.592 35.4383C116.73 33.7046 115.966 33.5318 115.121 33.9533C114.248 34.3891 114.232 35.2196 114.73 36.2226C115.428 37.6268 116.414 37.7067 117.58 37.751C118.974 37.8242 120.246 38.0118 121.158 39.8459C122.062 41.6656 121.566 43.004 120.12 43.7255Z" fill="#EE003C"/>
<path d="M133.723 37.512L129.517 26.6328L130.651 26.1927L134.857 37.072L133.723 37.512Z" fill="#EE003C"/>
<path d="M149.851 32.2608C147.974 32.796 146.596 31.575 145.377 27.2808C144.07 22.6787 144.92 21.2217 146.597 20.7436C148.578 20.1623 149.668 21.482 150.422 23.8458L149.33 24.1572C148.608 22.0837 147.928 21.4457 146.882 21.744C145.543 22.1257 145.678 23.9504 146.531 26.9518C147.396 29.9993 148.239 31.6223 149.578 31.2406C150.747 30.9072 150.879 29.6718 150.32 27.7017L150.035 26.7012L148.281 27.2013L148.015 26.2624L150.877 25.4465L151.432 27.4012C152.315 30.5103 151.405 31.8178 149.851 32.2608Z" fill="#EE003C"/>
<path d="M161.102 29.3182L158.963 17.852L160.347 17.5928L165.033 26.2215L165.127 26.2039L164.318 22.3022L163.335 17.0331L164.42 16.8298L166.559 28.296L165.191 28.5523L160.511 19.955L160.417 19.9726L161.2 23.7328L162.203 29.112L161.102 29.3182Z" fill="#EE003C"/>
<path d="M226.45 28.8436C224.406 28.4606 223.942 26.8437 224.328 24.6043L225.413 24.8076C225.023 26.8995 225.557 27.6995 226.563 27.8881C227.649 28.0913 228.223 27.3687 228.44 26.2048C228.713 24.742 228.052 24.0973 227.053 23.259C226.092 22.4767 225.104 21.5755 225.503 19.4364C225.861 17.5175 227.035 16.8095 228.513 17.0864C230.369 17.434 230.879 18.7993 230.502 20.9099L229.417 20.7066C229.772 18.8035 229.265 18.2039 228.337 18.0301C227.378 17.8504 226.866 18.5033 226.66 19.6043C226.373 21.1457 227.112 21.8051 228.016 22.5442C229.085 23.4444 229.988 24.3623 229.612 26.3756C229.24 28.3731 228.039 29.1411 226.45 28.8436Z" fill="#EE003C"/>
<path d="M241.799 32.3187L244.697 22.1141L242.743 21.557L243.031 20.5412L248.109 21.9888L247.821 23.0047L245.851 22.4431L242.954 32.6478L241.799 32.3187Z" fill="#EE003C"/>
<path d="M254.168 36.356L258.374 25.4768L260.656 26.3627C262.386 27.0343 263.036 28.282 262.223 30.3863C261.726 31.6697 260.91 32.4511 259.972 32.4816L259.931 32.5861C260.593 33.0489 260.665 33.8835 260.157 35.1968L259.407 37.1368C259.263 37.5099 259.145 37.8589 259.09 38.2668L258.001 37.8441C258.015 37.4545 258.165 37.0665 258.309 36.6934L259.036 34.8131C259.526 33.5446 259.306 32.9612 258.635 32.7007L257.083 32.0985L255.272 36.7845L254.168 36.356ZM257.435 31.1882L258.614 31.6456C259.777 32.0972 260.556 31.3697 261.052 30.0863C261.56 28.773 261.489 27.8017 260.207 27.3037L259.103 26.8753L257.435 31.1882Z" fill="#EE003C"/>
<path d="M268.901 42.6437L276.211 33.2555L277.643 33.9699L274.585 45.4797L273.554 44.9654L274.342 42.1219L271.736 40.8218L269.947 43.1652L268.901 42.6437ZM272.293 40.0622L274.612 41.2194L275.825 36.8718L276.457 34.6658L276.4 34.6372L275.016 36.4861L272.293 40.0622Z" fill="#EE003C"/>
<path d="M284.531 51.2633L290.107 42.2391L288.38 41.1678L288.935 40.2695L293.422 43.0531L292.867 43.9515L291.127 42.8717L285.551 51.896L284.531 51.2633Z" fill="#EE003C"/>
<path d="M295.455 58.6402L302.475 49.3252L305.843 51.874L305.217 52.7046L302.78 50.8605L300.286 54.17L302.391 55.763L301.794 56.5552L299.689 54.9622L297.012 58.5144L299.449 60.3585L298.823 61.189L295.455 58.6402Z" fill="#EE003C"/>
<path d="M309.745 70.644C308.304 69.3275 308.616 67.5104 311.62 64.2084C314.839 60.6697 316.523 60.6259 317.811 61.8021C319.345 63.1823 318.798 64.8062 317.188 66.6946L316.35 65.9284C317.73 64.2207 317.914 63.3052 317.111 62.5714C316.083 61.6326 314.606 62.7099 312.506 65.0177C310.374 67.3611 309.44 68.9348 310.468 69.8737C311.365 70.6938 312.483 70.1546 313.861 68.6397L314.561 67.8704L313.215 66.6402L313.871 65.9183L316.069 67.9255L314.701 69.4285C312.526 71.8192 310.938 71.7339 309.745 70.644Z" fill="#EE003C"/>
<path d="M320.688 81.4631L324.161 78.2905L327.609 71.7382L328.471 72.685L325.507 77.8198L325.56 77.879L330.947 75.4071L331.798 76.342L324.979 79.1899L321.506 82.3625L320.688 81.4631Z" fill="#EE003C"/>
<path d="M352.811 133.369L362.7 129.53L361.967 127.635L362.951 127.253L364.855 132.178L363.871 132.56L363.132 130.65L353.243 134.489L352.811 133.369Z" fill="#EE003C"/>
<path d="M357.402 146.65L368.619 143.452L369.773 147.515L368.773 147.8L367.938 144.861L363.953 145.997L364.674 148.536L363.72 148.808L362.999 146.269L358.721 147.488L359.556 150.428L358.556 150.713L357.402 146.65Z" fill="#EE003C"/>
<path d="M361.652 165.196C361.308 163.356 362.617 162.085 367.005 161.263C371.424 160.436 373.072 161.152 373.427 163.056C373.809 165.019 372.526 165.992 369.986 166.598L369.778 165.481C371.859 164.945 372.61 164.348 372.405 163.247C372.149 161.879 370.213 161.883 367.225 162.443C364.206 163.009 362.449 163.712 362.698 165.049C362.916 166.213 363.951 166.442 365.972 166.194L366.18 167.311C363.071 167.746 361.966 166.879 361.652 165.196Z" fill="#EE003C"/>
<path d="M363.479 176.445L375.093 175.367L375.204 176.562L370.01 177.044L370.284 180.007L375.478 179.525L375.587 180.704L363.973 181.782L363.864 180.604L369.233 180.105L368.959 177.142L363.59 177.64L363.479 176.445Z" fill="#EE003C"/>
<path d="M364.358 191.8H376.022V193.208L366.678 196.232V196.328L370.662 196.248H376.022V197.352H364.358V195.96L373.67 192.936V192.84L369.83 192.92H364.358V191.8Z" fill="#EE003C"/>
<path d="M363.665 210.376C363.842 208.464 365.402 207.58 369.895 207.997C374.388 208.415 375.759 209.57 375.582 211.482C375.404 213.41 373.829 214.276 369.353 213.86C364.86 213.443 363.487 212.303 363.665 210.376ZM364.717 210.473C364.587 211.875 366.468 212.387 369.463 212.665C372.554 212.952 374.42 212.756 374.547 211.386C374.675 210 372.811 209.473 369.784 209.192C366.71 208.907 364.844 209.103 364.717 210.473Z" fill="#EE003C"/>
<path d="M361.91 224.858L373.374 227.006L373.16 228.154L362.749 226.204L362.297 228.626L361.244 228.429L361.91 224.858Z" fill="#EE003C"/>
<path d="M358.036 241.095C358.561 239.248 360.256 238.667 364.595 239.904C368.934 241.141 370.07 242.53 369.546 244.377C369.017 246.239 367.31 246.801 362.987 245.568C358.648 244.331 357.507 242.958 358.036 241.095ZM359.052 241.385C358.667 242.739 360.422 243.589 363.315 244.414C366.3 245.265 368.17 245.415 368.545 244.092C368.926 242.753 367.191 241.892 364.267 241.058C361.298 240.212 359.428 240.061 359.052 241.385Z" fill="#EE003C"/>
<path d="M352.693 257.061C353.396 255.24 355.201 254.877 359.362 256.492C363.822 258.223 364.472 259.78 363.844 261.407C363.114 263.338 361.404 263.412 359.064 262.589L359.473 261.53C361.563 262.204 362.482 262.045 362.874 261.031C363.376 259.732 361.838 258.74 358.93 257.611C355.976 256.465 354.173 256.16 353.671 257.458C353.233 258.592 354.139 259.442 356.048 260.183L357.018 260.559L357.676 258.858L358.586 259.211L357.512 261.987L355.618 261.252C352.605 260.082 352.11 258.568 352.693 257.061Z" fill="#EE003C"/>
<path d="M346.586 271.196L350.795 273.296L358.14 274.154L357.571 275.301L351.72 274.384L351.684 274.455L355.933 278.596L355.371 279.728L350.254 274.385L346.045 272.285L346.586 271.196Z" fill="#EE003C"/>
<path d="M311.112 318.891L318.961 327.519L317.331 329.008C316.02 330.206 314.716 330.01 313.381 328.542C312.498 327.572 312.223 326.436 312.606 325.74L312.573 325.704C311.59 326.169 310.46 325.641 309.578 324.67C308.242 323.203 308.052 321.686 309.553 320.315L311.112 318.891ZM314.566 324.447L313.798 325.149C313.089 325.796 313.271 326.757 314.111 327.68C315.016 328.674 315.905 329.01 316.756 328.233L317.441 327.607L314.566 324.447ZM310.895 320.412L310.209 321.037C309.359 321.814 309.397 322.712 310.516 323.943C311.453 324.972 312.44 325.154 313.173 324.485L313.952 323.773L310.895 320.412Z" fill="#EE003C"/>
<path d="M299.352 328.978L306.372 338.293L304.42 339.77C302.94 340.89 301.539 340.786 300.181 338.984C299.353 337.885 299.12 336.778 299.587 335.963L299.52 335.873C298.779 336.193 298.033 335.815 297.186 334.69L295.934 333.029C295.693 332.71 295.459 332.425 295.142 332.164L296.073 331.459C296.397 331.676 296.647 332.008 296.888 332.327L298.101 333.937C298.919 335.023 299.53 335.143 300.105 334.708L301.432 333.704L298.408 329.692L299.352 328.978ZM302.019 334.484L301.011 335.247C300.016 336 300.224 337.046 301.052 338.145C301.899 339.27 302.761 339.721 303.858 338.891L304.802 338.177L302.019 334.484Z" fill="#EE003C"/>
<path d="M286.267 338.227L290.386 349.398L289.027 350.241L280.87 341.576L281.848 340.968L283.847 343.137L286.321 341.601L285.275 338.842L286.267 338.227ZM286.673 342.475L284.47 343.842L287.521 347.165L289.06 348.865L289.114 348.831L288.274 346.679L286.673 342.475Z" fill="#EE003C"/>
<path d="M273.776 345.491L278.967 355.937L277.707 356.565L270.843 349.548L270.757 349.591L272.601 353.123L274.987 357.923L273.999 358.416L268.808 347.97L270.054 347.349L276.904 354.338L276.989 354.295L275.209 350.892L272.774 345.991L273.776 345.491Z" fill="#EE003C"/>
<path d="M258.408 352.565L262.614 363.444L260.78 364.156C258.363 365.094 256.597 363.497 255.264 360.05C254.023 356.841 253.919 354.308 256.574 353.277L258.408 352.565ZM257.679 353.963L256.799 354.305C255.442 354.832 255.102 356.303 256.388 359.631C257.698 363.018 258.928 363.759 260.255 363.244L261.135 362.902L257.679 353.963Z" fill="#EE003C"/>
<path d="M242.356 358.09L245.542 369.311L244.372 369.644L241.186 358.424L242.356 358.09Z" fill="#EE003C"/>
<path d="M229.766 361.249L231.905 372.715L230.521 372.975L225.835 364.346L225.741 364.363L226.55 368.265L227.533 373.534L226.448 373.738L224.309 362.271L225.677 362.015L230.357 370.612L230.451 370.595L229.668 366.835L228.665 361.455L229.766 361.249Z" fill="#EE003C"/>
<path d="M210.346 363.927C212.29 363.746 213.42 365.2 213.831 369.645C214.272 374.409 213.169 375.684 211.432 375.845C209.378 376.052 208.549 374.554 208.241 372.092L209.372 371.987C209.701 374.158 210.253 374.91 211.336 374.81C212.722 374.681 212.924 372.863 212.636 369.756C212.345 366.601 211.813 364.851 210.427 364.98C209.216 365.092 208.861 366.282 209.049 368.321L209.145 369.357L210.961 369.188L211.051 370.16L208.088 370.435L207.901 368.412C207.603 365.194 208.737 364.076 210.346 363.927Z" fill="#EE003C"/>
</svg>
