<svg width="122" height="30" viewBox="0 0 122 30" fill="none" xmlns="http://www.w3.org/2000/svg">
<path d="M1.47119 5.81818H7.61466L11.8405 16.1165H12.0536L16.2794 5.81818H22.4229V24H17.5934V13.4886H17.4513L13.403 23.858H10.4911L6.44278 13.4176H6.30074V24H1.47119V5.81818ZM28.5282 24H23.2015L29.2029 5.81818H35.9501L41.9515 24H36.6248L32.6475 10.8253H32.5055L28.5282 24ZM27.5339 16.8267H37.5481V20.5199H27.5339V16.8267ZM51.8387 11.5C51.7914 10.9081 51.5694 10.4465 51.1729 10.1151C50.7823 9.78362 50.1875 9.6179 49.3884 9.6179C48.8795 9.6179 48.4622 9.68004 48.1367 9.80433C47.8171 9.9227 47.5803 10.0855 47.4264 10.2926C47.2726 10.4998 47.1927 10.7365 47.1867 11.0028C47.1749 11.2218 47.2134 11.4201 47.3022 11.5977C47.3969 11.7693 47.5448 11.9261 47.746 12.0682C47.9473 12.2043 48.2047 12.3286 48.5184 12.4411C48.8321 12.5535 49.205 12.6541 49.637 12.7429L51.1285 13.0625C52.1347 13.2756 52.9958 13.5567 53.712 13.9059C54.4281 14.2551 55.014 14.6664 55.4698 15.1399C55.9255 15.6075 56.2599 16.1342 56.473 16.7202C56.692 17.3061 56.8044 17.9453 56.8103 18.6378C56.8044 19.8333 56.5055 20.8454 55.9137 21.674C55.3218 22.5026 54.4755 23.1329 53.3746 23.565C52.2797 23.997 50.9628 24.2131 49.424 24.2131C47.8437 24.2131 46.4647 23.9793 45.2869 23.5117C44.115 23.0442 43.2036 22.325 42.5525 21.3544C41.9074 20.3778 41.5819 19.129 41.5759 17.608H46.2634C46.293 18.1643 46.4321 18.6319 46.6807 19.0107C46.9293 19.3894 47.2785 19.6765 47.7283 19.8718C48.184 20.0671 48.7256 20.1648 49.3529 20.1648C49.8797 20.1648 50.3206 20.0997 50.6757 19.9695C51.0309 19.8393 51.3001 19.6587 51.4836 19.4279C51.6671 19.1971 51.7618 18.9337 51.7677 18.6378C51.7618 18.3596 51.6701 18.117 51.4925 17.9098C51.3209 17.6967 51.0368 17.5073 50.6402 17.3416C50.2437 17.17 49.7081 17.0102 49.0333 16.8622L47.2223 16.4716C45.6124 16.1224 44.3429 15.5394 43.4137 14.7227C42.4904 13.9 42.0317 12.7784 42.0376 11.358C42.0317 10.2038 42.3394 9.19472 42.9609 8.33061C43.5883 7.46058 44.4553 6.78291 45.5621 6.29758C46.6748 5.81226 47.9502 5.5696 49.3884 5.5696C50.8563 5.5696 52.1258 5.81522 53.197 6.30646C54.2683 6.7977 55.0939 7.49018 55.674 8.38388C56.2599 9.27166 56.5558 10.3104 56.5617 11.5H51.8387ZM67.5321 11.5C67.4847 10.9081 67.2628 10.4465 66.8663 10.1151C66.4756 9.78362 65.8808 9.6179 65.0818 9.6179C64.5728 9.6179 64.1556 9.68004 63.83 9.80433C63.5104 9.9227 63.2737 10.0855 63.1198 10.2926C62.9659 10.4998 62.886 10.7365 62.8801 11.0028C62.8683 11.2218 62.9067 11.4201 62.9955 11.5977C63.0902 11.7693 63.2382 11.9261 63.4394 12.0682C63.6406 12.2043 63.8981 12.3286 64.2118 12.4411C64.5255 12.5535 64.8983 12.6541 65.3304 12.7429L66.8219 13.0625C67.828 13.2756 68.6892 13.5567 69.4053 13.9059C70.1215 14.2551 70.7074 14.6664 71.1631 15.1399C71.6189 15.6075 71.9533 16.1342 72.1663 16.7202C72.3853 17.3061 72.4978 17.9453 72.5037 18.6378C72.4978 19.8333 72.1989 20.8454 71.607 21.674C71.0152 22.5026 70.1688 23.1329 69.068 23.565C67.973 23.997 66.6561 24.2131 65.1173 24.2131C63.5371 24.2131 62.158 23.9793 60.9802 23.5117C59.8084 23.0442 58.8969 22.325 58.2459 21.3544C57.6007 20.3778 57.2752 19.129 57.2693 17.608H61.9568C61.9864 18.1643 62.1255 18.6319 62.3741 19.0107C62.6226 19.3894 62.9718 19.6765 63.4217 19.8718C63.8774 20.0671 64.4189 20.1648 65.0463 20.1648C65.573 20.1648 66.014 20.0997 66.3691 19.9695C66.7242 19.8393 66.9935 19.6587 67.177 19.4279C67.3605 19.1971 67.4552 18.9337 67.4611 18.6378C67.4552 18.3596 67.3634 18.117 67.1859 17.9098C67.0142 17.6967 66.7301 17.5073 66.3336 17.3416C65.937 17.17 65.4014 17.0102 64.7267 16.8622L62.9156 16.4716C61.3058 16.1224 60.0362 15.5394 59.107 14.7227C58.1837 13.9 57.725 12.7784 57.731 11.358C57.725 10.2038 58.0328 9.19472 58.6543 8.33061C59.2816 7.46058 60.1487 6.78291 61.2555 6.29758C62.3681 5.81226 63.6436 5.5696 65.0818 5.5696C66.5496 5.5696 67.8191 5.81522 68.8904 6.30646C69.9617 6.7977 70.7873 7.49018 71.3673 8.38388C71.9533 9.27166 72.2492 10.3104 72.2551 11.5H67.5321ZM78.3604 5.81818V24H73.4243V5.81818H78.3604ZM84.7143 5.81818L88.443 18.6378H88.585L92.3137 5.81818H97.889L91.8876 24H85.1404L79.139 5.81818H84.7143ZM98.6831 24V5.81818H111.787V9.79545H103.619V12.9205H111.112V16.8977H103.619V20.0227H111.751V24H98.6831ZM115.326 11.1207V7.18963H117.201C117.51 7.18963 117.774 7.24467 117.995 7.35476C118.215 7.46484 118.382 7.61932 118.495 7.81818C118.613 8.01704 118.671 8.25142 118.671 8.52131C118.671 8.79474 118.611 9.02734 118.49 9.2191C118.369 9.41087 118.197 9.55824 117.973 9.66122C117.75 9.76065 117.481 9.81037 117.169 9.81037H115.933V9.00071H116.988C117.158 9.00071 117.288 8.95987 117.377 8.8782C117.466 8.79652 117.51 8.67756 117.51 8.52131C117.51 8.3544 117.466 8.23011 117.377 8.14844C117.288 8.06321 117.158 8.0206 116.988 8.0206H116.455V11.1207H115.326ZM117.925 9.33097L118.767 11.1207H117.531L116.775 9.33097H117.925ZM116.903 13.4645C116.313 13.4645 115.761 13.3544 115.246 13.1342C114.731 12.9141 114.278 12.6087 113.888 12.218C113.497 11.8274 113.192 11.3746 112.972 10.8597C112.751 10.3448 112.641 9.79261 112.641 9.20312C112.641 8.61364 112.751 8.06143 112.972 7.54652C113.192 7.0316 113.497 6.57883 113.888 6.18821C114.278 5.79758 114.731 5.49219 115.246 5.27202C115.761 5.05185 116.313 4.94176 116.903 4.94176C117.492 4.94176 118.044 5.05185 118.559 5.27202C119.074 5.49219 119.527 5.79758 119.918 6.18821C120.308 6.57883 120.614 7.0316 120.834 7.54652C121.054 8.06143 121.164 8.61364 121.164 9.20312C121.164 9.79261 121.054 10.3448 120.834 10.8597C120.614 11.3746 120.308 11.8274 119.918 12.218C119.527 12.6087 119.074 12.9141 118.559 13.1342C118.044 13.3544 117.492 13.4645 116.903 13.4645ZM116.903 12.2713C117.471 12.2713 117.986 12.1346 118.447 11.8612C118.913 11.5842 119.282 11.2131 119.555 10.7479C119.832 10.2827 119.971 9.76776 119.971 9.20312C119.971 8.63849 119.832 8.12358 119.555 7.65838C119.282 7.19318 118.913 6.82386 118.447 6.55043C117.982 6.27344 117.467 6.13494 116.903 6.13494C116.338 6.13494 115.823 6.27344 115.358 6.55043C114.893 6.82386 114.522 7.19318 114.245 7.65838C113.971 8.12358 113.834 8.63849 113.834 9.20312C113.834 9.76776 113.971 10.2827 114.245 10.7479C114.522 11.2095 114.893 11.5788 115.358 11.8558C115.823 12.1328 116.338 12.2713 116.903 12.2713Z" fill="black"/>
</svg>
