<svg width="111" height="23" viewBox="0 0 111 23" fill="none" xmlns="http://www.w3.org/2000/svg">
<path d="M104.413 4.17003L104.267 0.350586H106.019L105.873 4.17003L109.267 2.12142L110.143 3.57975L106.566 5.35059L110.143 7.12142L109.267 8.57975L105.873 6.53114L106.019 10.3506H104.267L104.413 6.53114L101.019 8.57975L100.143 7.12142L103.72 5.35059L100.143 3.57975L101.019 2.12142L104.413 4.17003Z" fill="black"/>
<path d="M65.3891 7.0775V22.3502H69.6249V7.0775H65.3891Z" fill="black"/>
<path d="M65.8962 4.48233C66.3469 4.89995 66.8872 5.10875 67.5169 5.10875C68.1466 5.10875 68.6836 4.89995 69.1277 4.48233C69.5785 4.05809 69.8038 3.55099 69.8038 2.96103C69.8038 2.37769 69.5785 1.87722 69.1277 1.45961C68.6836 1.03536 68.1466 0.823242 67.5169 0.823242C66.8872 0.823242 66.3469 1.03536 65.8962 1.45961C65.452 1.87722 65.23 2.37769 65.23 2.96103C65.23 3.55099 65.452 4.05809 65.8962 4.48233Z" fill="black"/>
<path d="M0 1.98659H5.30966L10.9176 15.6684H11.1563L16.7642 1.98659H22.0739V22.3502H17.8977V9.09597H17.7287L12.4588 22.2508H9.61506L4.34517 9.04625H4.17614V22.3502H0V1.98659Z" fill="black"/>
<path fill-rule="evenodd" clip-rule="evenodd" d="M27.9367 22.6386C26.9622 22.6386 26.0939 22.4695 25.3315 22.1315C24.5692 21.7868 23.966 21.2797 23.5219 20.6102C23.0844 19.934 22.8656 19.0922 22.8656 18.0846C22.8656 17.2361 23.0214 16.5235 23.333 15.9468C23.6445 15.3701 24.0688 14.9061 24.6057 14.5548C25.1426 14.2035 25.7525 13.9383 26.4352 13.7593C27.1246 13.5803 27.8472 13.4544 28.6029 13.3815C29.4911 13.2887 30.207 13.2025 30.7506 13.123C31.2941 13.0368 31.6886 12.9108 31.9338 12.7451C32.1791 12.5794 32.3017 12.3341 32.3017 12.0093V11.9497C32.3017 11.3199 32.1029 10.8327 31.7051 10.488C31.314 10.1433 30.7572 9.97097 30.0347 9.97097C29.2724 9.97097 28.6658 10.14 28.2151 10.4781C27.7643 10.8095 27.466 11.2271 27.3202 11.7309L23.4026 11.4127C23.6014 10.4847 23.9925 9.68262 24.5759 9.00648C25.1592 8.32372 25.9116 7.80004 26.833 7.43546C27.761 7.06425 28.8349 6.87864 30.0546 6.87864C30.903 6.87864 31.7151 6.97807 32.4906 7.17694C33.2728 7.3758 33.9655 7.68404 34.5688 8.10165C35.1786 8.51927 35.6592 9.0562 36.0105 9.71245C36.3619 10.3621 36.5375 11.141 36.5375 12.0491V22.3502H32.5205V20.2323H32.4012C32.1559 20.7096 31.8278 21.1305 31.4168 21.4951C31.0058 21.8531 30.5119 22.1348 29.9352 22.3403C29.3585 22.5392 28.6923 22.6386 27.9367 22.6386ZM29.1497 19.7153C29.7728 19.7153 30.323 19.5927 30.8003 19.3474C31.2776 19.0955 31.6521 18.7574 31.9239 18.3332C32.1957 17.9089 32.3316 17.4284 32.3316 16.8914V15.2707C32.199 15.3569 32.0167 15.4364 31.7847 15.5093C31.5593 15.5756 31.3041 15.6386 31.0191 15.6982C30.734 15.7513 30.449 15.801 30.1639 15.8474C29.8789 15.8872 29.6204 15.9236 29.3884 15.9568C28.8912 16.0297 28.457 16.1457 28.0858 16.3048C27.7146 16.4639 27.4262 16.6793 27.2208 16.9511C27.0153 17.2162 26.9125 17.5477 26.9125 17.9454C26.9125 18.5221 27.1213 18.9629 27.5389 19.2678C27.9632 19.5661 28.5001 19.7153 29.1497 19.7153Z" fill="black"/>
<path d="M46.6933 11.6713L50.5711 11.4326C50.3855 10.0273 49.7359 8.91699 48.6223 8.10165C47.5153 7.28631 45.9973 6.87864 44.0683 6.87864C42.7624 6.87864 41.6223 7.07088 40.6478 7.45534C39.68 7.83982 38.9277 8.38669 38.3907 9.09597C37.8604 9.80525 37.5953 10.6504 37.5953 11.6315C37.5953 12.7716 37.9565 13.7096 38.6791 14.4454C39.4082 15.1812 40.5186 15.6982 42.01 15.9965L44.6549 16.5235C45.3178 16.6561 45.8083 16.8483 46.1265 17.1002C46.4447 17.3455 46.6071 17.6604 46.6137 18.0448C46.6071 18.5022 46.3751 18.8767 45.9177 19.1684C45.467 19.4535 44.8704 19.596 44.1279 19.596C43.3723 19.596 42.7525 19.4369 42.2686 19.1187C41.7847 18.7939 41.4797 18.3232 41.3538 17.7068L37.1876 17.9255C37.3931 19.3838 38.0924 20.5373 39.2856 21.3857C40.4854 22.2276 42.0962 22.6485 44.118 22.6485C45.4438 22.6485 46.6137 22.4397 47.6279 22.0221C48.6488 21.5979 49.4509 21.0079 50.0342 20.2522C50.6242 19.4965 50.9191 18.6182 50.9191 17.6173C50.9191 16.5169 50.5546 15.6286 49.8254 14.9525C49.0962 14.2764 47.9892 13.7858 46.5044 13.4809L43.7402 12.9241C43.0309 12.7716 42.5304 12.5695 42.2387 12.3176C41.9471 12.0657 41.8012 11.7574 41.8012 11.3928C41.8012 10.9355 42.0266 10.5709 42.4774 10.2991C42.9281 10.0207 43.4816 9.88148 44.1379 9.88148C44.6284 9.88148 45.0493 9.96434 45.4007 10.1301C45.7586 10.2892 46.047 10.5046 46.2657 10.7764C46.4845 11.0415 46.627 11.3398 46.6933 11.6713Z" fill="black"/>
<path d="M64.3338 11.4326L60.4559 11.6713C60.3896 11.3398 60.2471 11.0415 60.0284 10.7764C59.8096 10.5046 59.5213 10.2892 59.1633 10.1301C58.812 9.96434 58.3911 9.88148 57.9005 9.88148C57.2443 9.88148 56.6908 10.0207 56.24 10.2991C55.7893 10.5709 55.5639 10.9355 55.5639 11.3928C55.5639 11.7574 55.7097 12.0657 56.0014 12.3176C56.2931 12.5695 56.7935 12.7716 57.5028 12.9241L60.267 13.4809C61.7519 13.7858 62.8589 14.2764 63.588 14.9525C64.3172 15.6286 64.6818 16.5169 64.6818 17.6173C64.6818 18.6182 64.3868 19.4965 63.7968 20.2522C63.2135 21.0079 62.4114 21.5979 61.3906 22.0221C60.3764 22.4397 59.2064 22.6485 57.8807 22.6485C55.8589 22.6485 54.2481 22.2276 53.0483 21.3857C51.8551 20.5373 51.1558 19.3838 50.9503 17.9255L55.1164 17.7068C55.2424 18.3232 55.5473 18.7939 56.0312 19.1187C56.5151 19.4369 57.1349 19.596 57.8906 19.596C58.633 19.596 59.2296 19.4535 59.6804 19.1684C60.1378 18.8767 60.3698 18.5022 60.3764 18.0448C60.3698 17.6604 60.2074 17.3455 59.8892 17.1002C59.571 16.8483 59.0805 16.6561 58.4176 16.5235L55.7727 15.9965C54.2812 15.6982 53.1709 15.1812 52.4417 14.4454C51.7192 13.7096 51.3579 12.7716 51.3579 11.6315C51.3579 10.6504 51.6231 9.80525 52.1534 9.09597C52.6903 8.38669 53.4427 7.83982 54.4105 7.45534C55.3849 7.07088 56.5251 6.87864 57.8309 6.87864C59.7599 6.87864 61.2779 7.28631 62.3849 8.10165C63.4985 8.91699 64.1482 10.0273 64.3338 11.4326Z" fill="black"/>
<path d="M85.2966 7.0775L79.9571 22.3502H75.1844L69.8449 7.0775H74.3193L77.4912 18.0051H77.6503L80.8122 7.0775H85.2966Z" fill="black"/>
<path fill-rule="evenodd" clip-rule="evenodd" d="M87.9154 21.694C89.0489 22.3303 90.4012 22.6485 91.9722 22.6485C93.2317 22.6485 94.342 22.4563 95.3032 22.0718C96.271 21.6807 97.0598 21.1372 97.6697 20.4411C98.2862 19.7385 98.6938 18.9165 98.8927 17.9752L94.9751 17.7167C94.8292 18.1012 94.6171 18.426 94.3387 18.6911C94.0603 18.9563 93.7256 19.1552 93.3345 19.2877C92.9434 19.4203 92.5125 19.4866 92.0418 19.4866C91.3326 19.4866 90.7194 19.3374 90.2024 19.0392C89.6853 18.7409 89.2843 18.3166 88.9992 17.7664C88.7208 17.2162 88.5816 16.5633 88.5816 15.8076V15.7977H98.9822V14.6343C98.9822 13.3351 98.7999 12.2016 98.4353 11.2338C98.0707 10.2593 97.5603 9.45061 96.9041 8.80762C96.2544 8.16463 95.4921 7.68404 94.6171 7.36586C93.7488 7.04105 92.8108 6.87864 91.8032 6.87864C90.3051 6.87864 88.9992 7.21008 87.8856 7.87296C86.7786 8.53584 85.9202 9.46055 85.3103 10.6471C84.7005 11.8337 84.3955 13.2124 84.3955 14.7835C84.3955 16.3943 84.7005 17.7896 85.3103 18.9696C85.9202 20.1428 86.7885 21.051 87.9154 21.694ZM88.5856 13.1727C88.6111 12.6242 88.7523 12.1238 89.0092 11.6713C89.2876 11.1741 89.6721 10.7797 90.1626 10.488C90.6597 10.1897 91.2298 10.0406 91.8728 10.0406C92.4893 10.0406 93.0295 10.1765 93.4935 10.4482C93.9642 10.7134 94.3321 11.0813 94.5972 11.5519C94.8624 12.0226 94.995 12.5628 94.995 13.1727H88.5856Z" fill="black"/>
</svg>
